<svg width="659" height="98" viewBox="0 0 659 98" fill="none" xmlns="http://www.w3.org/2000/svg">
<path d="M112.283 22.6036C113.08 22.1239 113.678 21.8871 114.077 21.8871C114.632 21.8871 116.189 22.6659 118.744 24.2173C121.292 25.7749 123.005 26.9898 123.884 27.862L125.56 29.7747L123.647 30.4912C122.214 30.971 121.454 31.2077 121.373 31.2077L116.588 33.4818C114.277 34.678 112.32 35.2761 110.732 35.2761C109.934 35.2761 109.255 35.2387 108.7 35.1577C108.221 35.0767 107.585 35.0394 106.788 35.0394C105.754 35.0394 104.912 35.2761 104.277 35.7558C103.317 36.7153 94.5514 41.575 77.9663 50.3473C60.5089 59.836 51.7802 64.6147 51.7802 64.6957C51.7802 65.0134 54.3284 65.1754 59.4311 65.1754C66.8451 65.1754 75.9539 64.9387 86.7573 64.4589C97.5606 63.9792 103.56 63.4995 104.757 63.026C105.716 62.7082 106.314 62.5462 106.551 62.5462C107.267 62.5462 108.501 63.2627 110.258 64.7019C112.171 66.2159 113.286 66.976 113.604 66.976L113.84 66.8576C114.077 66.8576 114.339 66.8389 114.619 66.7953C114.9 66.7517 115.199 66.733 115.516 66.733C116.713 66.733 117.429 67.4121 117.672 68.7641V69.4806C117.672 70.5958 116.837 72.1534 115.161 74.1471C113.485 76.2218 112.052 77.256 110.856 77.256C110.694 77.256 110.457 77.2373 110.14 77.1937C109.822 77.1501 109.542 77.1314 109.305 77.1314H107.629C100.931 77.1314 85.1249 77.7295 60.2161 78.9258C35.301 80.122 22.4852 80.9195 21.7688 81.3182C21.451 81.555 21.0087 81.6796 20.4542 81.6796C19.5757 81.6796 17.9433 81.2808 15.5509 80.4833C12.442 79.4491 10.8844 78.7264 10.8844 78.3339C10.8844 77.8541 10.4856 77.6174 9.68815 77.6174C8.65392 77.6174 6.77859 76.9383 4.0684 75.5863C1.35821 74.2281 0 73.3122 0 72.8387C0 71.8793 0.915857 71.4058 2.74757 71.4058C3.62605 71.4058 4.37992 71.5615 5.02164 71.8855C5.33939 72.1222 5.81912 72.2468 6.45461 72.2468C7.56984 72.2468 9.99967 71.5304 13.7503 70.0912L20.9277 67.3436L24.6347 69.3747C26.7094 70.4089 28.1424 70.9323 28.9399 70.9323C29.0956 70.9323 29.1766 70.8886 29.1766 70.8139C29.1766 70.4961 28.2981 69.817 26.5474 68.7828C24.3917 67.5056 23.3201 66.5523 23.3201 65.9106C23.3201 65.5929 23.6005 65.1941 24.155 64.7144C24.6347 64.3966 36.5097 58.6149 59.7924 47.3754C83.3867 36.1359 97.1432 29.3573 101.05 27.0459C105.436 24.5786 108.227 23.3388 109.423 23.3388C110.538 23.3388 111.498 23.1021 112.295 22.6223L112.283 22.6036ZM35.2699 78.0847L36.8274 77.9663H21.1644C21.4822 78.0473 21.9619 78.0847 22.5974 78.0847C23.1519 78.0847 24.155 78.1034 25.5879 78.147C27.0209 78.1843 28.1361 78.2093 28.9336 78.2093C29.7311 78.2093 30.865 78.1906 32.3416 78.147C33.8182 78.1034 34.7901 78.0847 35.2699 78.0847ZM60.7394 67.3249C61.2939 67.5616 61.7363 67.5243 62.054 67.2065C62.216 66.9698 62.135 66.8452 61.8173 66.8452H61.2192C60.8204 66.8452 60.5587 66.8825 60.4404 66.9635C60.322 67.0445 60.4217 67.1629 60.7394 67.3249Z" fill="#EFE23A"/>
<path d="M140.263 38.2667C142.176 37.0705 143.453 36.4724 144.089 36.4724C144.724 36.4724 145.048 37.2324 145.048 38.7464C145.048 39.2262 144.967 40.5844 144.811 42.8148C144.73 43.8491 144.693 45.1699 144.693 46.7586C144.693 48.9891 144.973 50.1043 145.528 50.1043C145.845 50.1043 146.244 49.8675 146.724 49.3878C147.278 48.8333 147.241 48.3536 146.606 47.9548C146.444 47.8738 146.369 47.7181 146.369 47.4751C146.369 46.8396 148.643 44.7213 153.185 41.1389C154.78 39.8679 155.995 39.1078 156.83 38.8648C157.664 38.628 159.322 38.5034 161.795 38.5034C165.222 38.5034 166.854 38.7028 166.698 39.1015C166.536 39.5003 160.599 46.796 148.88 60.9824L131.179 82.1469L125.678 84.9007C123.366 86.0159 121.572 87.0688 120.295 88.0719C119.018 89.0687 117.504 90.645 115.753 92.7945C113.043 96.0654 111.329 97.6977 110.613 97.6977C110.295 97.6977 110.177 97.4174 110.252 96.8629C110.252 96.3831 115.871 89.2868 127.111 75.5801C138.512 61.6304 144.288 54.4967 144.45 54.1727C144.768 53.5372 144.531 53.2568 143.733 53.3378L143.372 53.4562H142.892C141.858 53.4562 140.699 52.7023 139.422 51.1821C138.388 50.0669 137.727 49.1074 137.447 48.31C137.167 47.5125 137.03 46.1979 137.03 44.3662C137.03 42.2915 137.167 41.0018 137.447 40.4784C137.727 39.9613 138.662 39.2199 140.257 38.2667H140.263Z" fill="#EFE23A"/>
<path d="M208.903 5.6198C210.816 3.5451 212.093 2.51086 212.728 2.51086C212.965 2.51086 213.09 2.67285 213.09 2.9906C213.09 3.15259 212.093 4.70394 210.099 7.65711C208.186 10.3673 207.227 13.0775 207.227 15.7877C207.227 17.7004 206.847 19.2767 206.093 20.5103C205.333 21.7501 202.803 25.1581 198.498 30.7342C192.679 38.1483 189.769 41.9363 189.769 42.0921C189.769 42.4099 192.442 42.5718 197.782 42.5718H205.794L207.227 45.6808L208.903 48.6713L207.108 49.8676C206.872 50.0295 206.149 50.5467 204.959 51.4251C203.763 52.3036 202.087 53.5372 199.937 55.1322C197.788 56.7271 195.869 58.1227 194.199 59.319C174.748 73.6674 164.904 80.8447 164.661 80.8447C164.02 80.8447 161.851 79.6672 158.144 77.3184C154.437 74.9633 152.587 73.5926 152.587 73.1939C152.587 72.4774 159.764 63.35 174.113 45.8116C183.203 34.6531 189.221 27.3948 192.168 24.0491C195.115 20.7034 197.19 18.7845 198.386 18.311C200.299 17.5135 202.049 15.7191 203.651 12.928C205.084 10.4608 206.841 8.0247 208.909 5.63226L208.903 5.6198ZM191.202 50.3473C191.202 50.0295 189.807 49.8676 187.016 49.8676C185.103 49.8676 183.826 50.0046 183.19 50.285C182.549 50.5653 181.714 51.3005 180.679 52.4967C179.72 53.693 178.923 54.4095 178.287 54.6462C177.645 54.883 176.175 55.045 173.863 55.1259C171.072 55.1259 169.677 55.2879 169.677 55.6057C169.677 56.1664 170.512 56.4405 172.188 56.4405C173.863 56.4405 174.898 56.5589 175.533 56.8019C175.932 56.9639 176.131 57.2006 176.131 57.5184C176.131 58.0791 175.67 58.6336 174.754 59.1943C173.839 59.7551 172.779 60.0728 171.583 60.1538H171.346L169.913 60.3906C169.994 60.3906 170.35 60.4342 170.991 60.5089C172.343 60.6709 173.022 60.9077 173.022 61.2254C173.022 61.3874 172.343 62.3843 170.991 64.216L168.96 66.9636L172.667 64.3344C175.215 62.5027 177.091 61.4622 178.287 61.2254C179.564 60.9077 180.2 60.428 180.2 59.7925C180.2 59.076 180.86 58.3408 182.175 57.5807C183.489 56.8268 184.785 56.4468 186.062 56.4468C187.576 56.4468 188.337 56.0854 188.337 55.3689C188.337 55.1322 188.019 55.0076 187.377 55.0076C186.897 54.8518 187.377 54.1291 188.81 52.8519C190.405 51.4189 191.202 50.5778 191.202 50.3411V50.3473ZM177.571 50.3473C177.49 50.1915 177.172 50.0669 176.611 49.9859C175.814 50.0669 175.533 50.1853 175.776 50.3473C176.412 50.5093 177.01 50.5093 177.571 50.3473Z" fill="#EFE23A"/>
<path d="M261.636 69.4805C261.399 69.4805 252.845 71.3123 235.986 74.9819C219.127 78.6454 210.653 80.4833 210.572 80.4833C210.255 80.4833 208.66 79.2061 205.788 76.6579C202.915 74.1035 201.482 72.6705 201.482 72.3527C201.482 71.873 203.675 68.4837 208.062 62.1911L214.759 52.7459H217.75C217.987 52.7459 218.566 52.7272 219.482 52.6836C220.398 52.6462 221.176 52.6213 221.812 52.6213C222.366 52.6213 223.264 52.64 224.503 52.6836C225.737 52.7272 226.672 52.7459 227.313 52.7459H230.186C232.179 52.7459 233.176 52.5901 233.176 52.2662C233.176 52.1104 233.058 51.9048 232.815 51.6681C232.173 51.0326 230.46 50.7086 227.675 50.7086H222.535C218.865 50.7086 217.033 50.5902 217.033 50.3472C217.033 49.7117 219.501 45.9237 224.447 38.9894L232.341 27.8682L247.288 28.348C259.325 28.6657 268.016 28.9461 273.355 29.1828L284.477 29.6626C282.963 31.7373 281.405 34.0861 279.81 36.7153H268.807C263.786 36.7153 260.614 36.7963 259.3 36.952C257.985 37.114 257.044 37.5128 256.49 38.1483C255.848 38.79 255.032 39.2074 254.035 39.4006C253.038 39.5999 250.908 39.6996 247.637 39.6996H240.104L239.026 41.8491L237.83 44.0048H259.113C262.938 44.0048 265.493 44.0858 266.764 44.2415C268.041 44.4035 268.676 44.7586 268.676 45.3194C268.676 45.5561 268.035 46.7523 266.764 48.908C265.804 50.503 264.508 51.4811 262.876 51.8363C261.244 52.1976 254.727 53.0886 243.325 54.5278C236.148 55.4063 232.042 56.1601 231.008 56.8018C230.447 57.1196 229.693 58.1974 228.734 60.0292C227.538 62.1848 226.94 63.5368 226.94 64.0976C226.94 64.2533 227.139 64.3343 227.538 64.3343C228.572 64.3343 235.749 63.2565 249.063 61.107C258.87 59.512 264.209 58.7146 265.088 58.7146C265.642 58.7146 265.985 58.7956 266.103 58.9513C266.222 59.1133 266.284 59.35 266.284 59.6678C266.284 60.3095 265.586 62.1039 264.191 65.0508C262.795 67.9977 261.935 69.4743 261.618 69.4743L261.636 69.4805ZM225.88 65.7673C225.563 65.2875 224.765 65.1256 223.488 65.2875C217.426 65.6863 214.118 66.166 213.563 66.7205C213.401 66.8763 213.326 67.0009 213.326 67.0819C213.326 67.3186 214.404 67.4432 216.554 67.4432H219.663C223.887 67.2065 225.999 66.7267 225.999 66.0103C225.999 65.9293 225.98 65.8919 225.936 65.8919C225.893 65.8919 225.874 65.8483 225.874 65.7735L225.88 65.7673ZM221.937 47.7118C221.937 47.2321 221.656 46.9953 221.102 46.9953C220.622 46.9953 220.385 47.2321 220.385 47.7118C220.385 48.1915 220.622 48.4283 221.102 48.4283C221.656 48.4283 221.937 48.1915 221.937 47.7118ZM234.609 46.1605C235.488 45.8427 235.488 45.6807 234.609 45.6807H233.531C232.017 45.6807 230.541 45.8427 229.108 46.1605C228.073 46.4782 227.911 46.6776 228.628 46.7586H230.304C232.217 46.7586 233.65 46.5592 234.609 46.1605ZM235.687 65.8919C235.687 65.4122 234.609 65.1754 232.46 65.1754C230.31 65.1754 229.114 65.4122 229.114 65.8919C229.114 66.3716 230.229 66.6084 232.46 66.6084C234.69 66.6084 235.687 66.3716 235.687 65.8919ZM236.765 46.1605C237.001 46.1605 237.126 46.0421 237.126 45.7991C237.126 45.5561 237.008 45.4377 236.765 45.4377C236.522 45.4377 236.403 45.5561 236.403 45.7991C236.403 46.0421 236.522 46.1605 236.765 46.1605ZM237.718 65.6489C238.272 65.9667 238.715 65.9293 239.033 65.5305C239.269 65.2938 239.188 65.1692 238.796 65.1692H238.198C237.799 65.1692 237.537 65.2066 237.419 65.2875C237.301 65.3685 237.4 65.4869 237.718 65.6489ZM239.394 47.7118C239.394 47.2321 239.276 46.9953 239.033 46.9953C238.79 46.9953 238.553 47.2757 238.316 47.8302C238.154 48.2289 238.235 48.4283 238.553 48.4283C239.107 48.4283 239.388 48.1915 239.388 47.7118H239.394Z" fill="#EFE23A"/>
<path d="M291.293 27.7436L292.726 24.5163L297.99 24.996C319.915 26.753 333.902 27.6252 339.964 27.6252C341.235 27.6252 342.637 28.7405 344.151 30.9709C345.584 33.1204 346.306 34.3166 346.306 34.5596L330.4 40.061C319.796 43.5686 314.494 45.4813 314.494 45.7991C314.494 46.0358 318.719 47.7928 327.173 51.0637L339.97 56.0853L331.36 64.6957L325.977 63.1381C321.753 61.8609 319.641 60.9824 319.641 60.5089C319.641 60.3531 320.077 60.2721 320.955 60.2721C326.22 59.9544 328.849 59.5556 328.849 59.0759C328.849 58.9201 327.173 58.8391 323.827 58.8391C320.158 58.8391 318.089 59.0759 317.61 59.5556C316.968 60.1974 316.532 60.1974 316.295 59.5556C316.058 59.0759 315.46 58.8391 314.501 58.8391C313.703 58.8391 311.454 58.1227 307.747 56.6897C304.04 55.2567 300.632 53.7801 297.523 52.2662C294.813 50.8332 293.174 50.1105 292.62 50.1105C292.458 50.1105 291.405 51.9609 289.449 55.6679C287.492 59.375 285.523 63.1007 283.53 66.8513L280.658 72.4711H280.539C280.14 72.4711 279.106 71.4556 277.43 69.4245C275.754 67.3934 274.919 66.0165 274.919 65.3C274.919 64.0228 275.954 61.1132 278.028 56.5713C283.767 44.5343 288.19 34.9272 291.299 27.7498L291.293 27.7436ZM322.027 33.3634C320.831 32.9646 316.725 32.7652 309.71 32.7652H306.121C301.897 32.7652 299.305 33.002 298.345 33.4817C297.386 33.9615 296.869 35.1951 296.788 37.1888V37.9053C296.788 38.6217 296.906 39.0828 297.149 39.2822C297.386 39.4815 297.903 39.6622 298.707 39.818H298.944C300.775 39.818 305.099 38.8834 311.915 37.0081C318.731 35.139 322.139 33.9615 322.139 33.4817C322.139 33.4007 322.095 33.3634 322.021 33.3634H322.027ZM320.949 55.1259C320.949 54.6461 320.868 54.4094 320.712 54.4094C320.395 54.4094 320.114 54.6898 319.877 55.2443C319.877 55.562 319.996 55.7614 320.239 55.8424C320.719 55.8424 320.955 55.6056 320.955 55.1259H320.949Z" fill="#EFE23A"/>
<path d="M357.652 1.55758C358.051 0.523347 359.047 0 360.642 0C361.758 0 362.318 0.361359 362.318 1.07785C362.318 1.63858 363.353 2.0747 365.427 2.39244C367.502 2.71019 373.801 3.3083 384.324 4.18678L398.791 5.383L401.538 3.82542C403.214 2.86595 404.604 2.39244 405.725 2.39244C405.962 2.39244 406.722 2.47344 407.999 2.6292C410.229 2.94694 411.345 3.42668 411.345 4.06217C411.345 4.37992 411.301 4.66028 411.226 4.89703C411.064 5.69452 411.064 6.17425 411.226 6.33001C411.382 6.492 411.905 6.56676 412.784 6.56676C414.778 6.56676 420.833 7.0465 430.958 7.99974C441.4 8.87821 447.736 9.87506 449.973 10.9903C451.885 11.9498 455.312 12.7846 460.259 13.5011C465.044 14.0618 467.592 14.498 467.91 14.8157C468.147 15.0525 467.91 15.5758 467.193 16.3733C466.876 16.934 466.078 17.2082 464.801 17.2082C462.888 17.2082 457.748 16.61 449.375 15.4138L432.515 13.0214L427.494 15.2954C424.466 16.6537 422.03 17.3265 420.198 17.3265C419.799 17.3265 418.086 17.2455 415.058 17.0898C414.018 17.0088 412.803 16.934 411.413 16.853C410.018 16.772 408.965 16.716 408.242 16.6723C407.526 16.635 407.127 16.61 407.046 16.61C406.566 16.61 403.7 22.5102 398.436 34.3104C395.806 40.2915 393.713 44.9767 392.155 48.3598C390.598 51.7491 388.984 55.319 387.314 59.0635C385.638 62.8079 383.844 66.7579 381.931 70.9011C380.019 75.0442 378.704 77.7357 377.988 78.9756C377.271 80.2092 376.629 80.826 376.075 80.826H375.714C374.835 80.5892 374.218 80.2092 373.863 79.6921C373.502 79.1749 373.327 78.2778 373.327 77.0006C373.327 75.9601 373.527 73.5303 373.925 69.7049C374.405 65.082 374.779 62.3095 375.059 61.3936C375.34 60.4777 375.956 59.9419 376.916 59.7799C377.713 59.6242 378.486 58.7457 379.246 57.1508C380 55.5558 381.738 51.2133 384.448 44.1169C388.274 34.1546 390.548 28.7343 391.264 27.8558C391.582 27.538 391.744 26.9773 391.744 26.1798C391.744 25.7001 392.261 23.9307 393.302 20.8591C394.336 17.7938 394.859 16.0555 394.859 15.6568C394.859 15.42 392.23 15.0587 386.965 14.579C378.592 13.7815 372.953 13.1024 370.044 12.5479C367.134 11.9934 364.798 11.0713 363.047 9.8003C359.378 7.1711 357.546 4.66028 357.546 2.26784C357.546 1.95009 357.583 1.71334 357.664 1.55135L357.652 1.55758ZM374.274 7.29571C374.991 7.29571 375.352 7.05896 375.352 6.57922C375.352 6.09949 374.991 5.86273 374.274 5.86273C373.558 5.86273 373.196 6.09949 373.196 6.57922C373.196 7.05896 373.558 7.29571 374.274 7.29571ZM380.019 12.9155C379.938 12.7597 379.62 12.6351 379.059 12.5541C378.417 12.6351 378.1 12.7535 378.1 12.9155C378.735 13.0774 379.377 13.0774 380.012 12.9155H380.019ZM388.504 12.7971C388.504 12.5603 388.342 12.4357 388.025 12.4357C387.788 12.4357 387.663 12.5541 387.663 12.7971C387.663 13.0401 387.782 13.1584 388.025 13.1584C388.342 13.1584 388.504 13.0401 388.504 12.7971ZM389.701 12.9155C390.255 13.2332 390.697 13.1958 391.015 12.7971C391.252 12.5603 391.171 12.4357 390.778 12.4357H390.18C389.782 12.4357 389.52 12.498 389.402 12.6164C389.283 12.7348 389.383 12.8345 389.701 12.9155ZM397.831 26.9088C397.831 26.429 397.233 26.1923 396.037 26.1923C395.077 26.1923 394.604 26.3543 394.604 26.672C394.604 27.3137 395.239 27.6315 396.517 27.6315C397.395 27.6315 397.831 27.3947 397.831 26.915V26.9088ZM398.074 12.9155C398.392 13.2332 398.71 13.2332 399.034 12.9155C399.034 12.6787 398.872 12.5167 398.554 12.4357C397.912 12.4357 397.756 12.5977 398.074 12.9155ZM411.588 12.0806C411.588 11.5261 411.469 11.2021 411.226 11.1211C410.99 11.0401 410.466 11.1647 409.669 11.4825C408.952 11.8002 408.653 12.1616 408.772 12.5603C408.89 12.9591 409.351 13.1584 410.149 13.1584C411.108 13.1584 411.581 12.7971 411.581 12.0806H411.588Z" fill="#EFE23A"/>
<path d="M420.553 34.7963L424.858 28.6968L439.805 29.0582C450.247 29.3759 457.262 29.6563 460.851 29.8931L466.832 30.3728L466.471 32.4039C466.072 34.2356 465.754 36.1919 465.511 38.2604C465.193 40.9706 464.514 42.7649 463.48 43.6434C462.365 44.5219 460.527 48.827 457.979 56.5588L454.272 68.0413L450.92 68.5211C448.608 68.8388 447.449 68.8388 447.449 68.5211C447.449 68.1223 447.948 65.5928 448.945 60.9263C449.942 56.2598 450.44 53.6555 450.44 53.0948C450.44 52.939 450.122 52.858 449.481 52.858C447.967 52.858 445.493 53.0574 442.066 53.4561C436.727 54.0979 431.662 54.534 426.877 54.7707C423.45 54.9327 421.295 55.1134 420.416 55.3065C419.538 55.5059 418.902 56.0043 418.503 56.8018C418.105 57.5993 417.606 58.0977 417.008 58.2971C416.41 58.4965 415.151 58.5962 413.239 58.5962C410.211 58.5962 408.416 58.7955 407.856 59.1943C407.538 59.431 407.376 59.6366 407.376 59.7924C407.376 60.2721 408.572 60.5089 410.965 60.5089C412.317 60.5089 413.432 60.4715 414.317 60.3905C417.743 59.9917 419.538 59.3563 419.7 58.4778C420.017 57.5993 420.615 57.1258 421.494 57.0448C421.893 57.2068 422.129 57.4062 422.21 57.6429C422.21 57.8797 420.615 60.9886 417.426 66.9697L412.641 75.8168L408.572 77.3744C406.579 78.0908 405.264 78.4522 404.628 78.4522C404.149 78.4522 403.75 78.3338 403.432 78.0908C403.351 78.0098 403.033 77.7482 402.473 77.312C401.912 76.8697 401.295 76.3962 400.622 75.8791C399.943 75.362 399.326 74.8635 398.766 74.3838L395.295 71.5116L399.002 66.1286C401.47 62.54 403.071 60.7456 403.787 60.7456C404.186 60.7456 404.385 60.4279 404.385 59.7861C404.385 58.9077 406.018 56.0417 409.289 51.1758L414.553 43.6434L418.142 43.282C420.453 42.9643 421.768 42.5282 422.086 41.9674C422.242 41.5687 421.924 41.3693 421.126 41.3693L419.45 41.4877C417.457 41.8054 416.46 41.8054 416.46 41.4877C416.46 41.008 417.812 38.7775 420.528 34.7901L420.553 34.7963ZM420.79 47.9548C420.79 47.799 420.553 47.718 420.073 47.718C419.594 47.718 419.357 47.9548 419.357 48.4345C419.357 49.0762 419.718 49.0762 420.435 48.4345C420.672 48.2787 420.796 48.1168 420.796 47.9548H420.79ZM432.509 49.151C432.509 48.7522 432.21 48.4532 431.612 48.2538C431.014 48.0544 430.397 48.0358 429.762 48.1915C428.646 48.5903 428.447 49.0264 429.163 49.5061C429.481 49.7429 429.961 49.8675 430.596 49.8675C431.874 49.8675 432.509 49.6307 432.509 49.151ZM454.153 41.1388L454.87 37.3134C454.87 37.1576 454.589 37.0766 454.035 37.0766C453.075 37.0766 451.923 37.2573 450.565 37.6124C449.206 37.9738 448.453 38.3102 448.291 38.628C447.892 39.3445 445.182 39.7058 440.16 39.7058H432.509L431.431 41.8553L430.235 44.011H434.179C436.254 44.011 440.079 44.173 445.661 44.4907L453.312 44.9704L454.147 41.145L454.153 41.1388Z" fill="#EFE23A"/>
<path d="M482.14 27.7436L483.573 24.5163L488.837 24.996C510.762 26.753 524.749 27.6252 530.811 27.6252C532.088 27.6252 533.484 28.7405 534.998 30.9709C536.431 33.1204 537.154 34.3166 537.154 34.5596L521.248 40.061C510.644 43.5686 505.341 45.4813 505.341 45.7991C505.341 46.0358 509.566 47.7928 518.014 51.0637L530.811 56.0853L522.201 64.6957L516.818 63.1381C512.594 61.8609 510.481 60.9824 510.481 60.5089C510.481 60.3531 510.918 60.2721 511.796 60.2721C517.061 59.9544 519.69 59.5556 519.69 59.0759C519.69 58.9201 518.014 58.8391 514.668 58.8391C510.999 58.8391 508.93 59.0759 508.45 59.5556C507.809 60.1974 507.373 60.1974 507.136 59.5556C506.899 59.0759 506.301 58.8391 505.341 58.8391C504.544 58.8391 502.295 58.1227 498.588 56.6897C494.881 55.2567 491.473 53.7801 488.364 52.2662C485.654 50.8332 484.015 50.1105 483.461 50.1105C483.299 50.1105 482.246 51.9609 480.289 55.6679C478.333 59.375 476.364 63.1007 474.371 66.8513L471.498 72.4711H471.38C470.981 72.4711 469.947 71.4556 468.271 69.4245C466.595 67.3934 465.76 66.0165 465.76 65.3C465.76 64.0228 466.794 61.1132 468.869 56.5713C474.607 44.5343 479.031 34.9272 482.14 27.7498V27.7436ZM512.868 33.3634C511.672 32.9646 507.566 32.7652 500.55 32.7652H496.962C492.738 32.7652 490.146 33.002 489.186 33.4817C488.227 33.9615 487.71 35.1951 487.629 37.1888V37.9053C487.629 38.6217 487.747 39.0828 487.99 39.2822C488.227 39.4815 488.744 39.6622 489.548 39.818H489.784C491.616 39.818 495.94 38.8834 502.762 37.0081C509.578 35.139 512.986 33.9615 512.986 33.4817C512.986 33.4007 512.942 33.3634 512.868 33.3634ZM511.796 55.1259C511.796 54.6461 511.715 54.4094 511.559 54.4094C511.242 54.4094 510.961 54.6898 510.724 55.2443C510.724 55.562 510.843 55.7614 511.086 55.8424C511.566 55.8424 511.802 55.6056 511.802 55.1259H511.796Z" fill="#EFE23A"/>
<path d="M572.299 36.354C580.031 35.9552 584.373 35.7559 585.333 35.7559C587.164 35.7559 588.08 35.9552 588.08 36.354C588.08 36.9957 587.245 37.5128 585.569 37.9116C583.414 38.5533 582.342 39.3445 582.342 40.304C582.342 40.9457 582.859 42.3787 583.9 44.6091C585.096 47.0016 586.211 50.1292 587.245 53.9982C588.279 57.8673 588.803 60.6772 588.803 62.4279C588.803 62.5899 588.784 62.7456 588.74 62.9076C588.697 63.0634 588.678 63.188 588.678 63.269C588.36 64.5462 586.965 66.6209 584.491 69.4868C582.018 72.359 579.707 74.5895 577.557 76.1844C572.535 79.8479 565.794 81.9662 557.346 82.5207L549.932 82.882L542.997 76.9009C540.125 74.4275 538.231 72.6331 537.315 71.5179C536.4 70.4027 535.938 69.1255 535.938 67.6925C535.938 66.3343 536.3 64.4652 537.016 62.0727C539.172 53.8612 543.552 47.6059 550.169 43.3008C553.595 41.0703 556.947 39.4318 560.212 38.3975C563.483 37.3633 567.508 36.6842 572.292 36.3664L572.299 36.354ZM573.14 47.9548C571.383 46.0421 570.149 45.0827 569.433 45.0827C568.635 45.1636 566.043 46.3225 561.657 48.5529C557.271 50.7834 554.324 52.4967 552.81 53.693C551.695 54.5714 550.362 56.3845 548.804 59.132C547.247 61.8796 546.275 64.216 545.876 66.1287C545.795 66.2844 545.757 66.5274 545.757 66.8452C545.757 67.8046 546.873 69.1192 549.109 70.789C551.34 72.4649 553.097 73.2998 554.368 73.2998C554.686 73.2998 555.645 73.2188 557.24 73.063C562.897 72.5023 567.601 71.1877 571.352 69.1192C575.096 67.0445 577.214 64.5773 577.688 61.7052C577.769 61.3064 577.806 60.7083 577.806 59.9108C577.806 57.9171 577.364 55.805 576.492 53.5746C575.613 51.3441 574.498 49.4688 573.14 47.9548Z" fill="#EFE23A"/>
<path d="M587.488 31.0893C587.488 30.2108 588.043 29.7747 589.164 29.7747C589.8 29.7747 590.36 30.0115 590.84 30.4912C591.239 30.8899 595.264 31.3697 602.921 31.9242C608.26 32.3229 611.413 32.5223 612.366 32.5223C614.042 32.5223 615.238 32.2855 615.955 31.8058C616.833 31.3261 617.867 31.0893 619.064 31.0893C621.219 31.0893 622.291 31.5254 622.291 32.4039C622.291 32.6407 622.447 32.865 622.771 33.0643C623.088 33.2637 623.767 33.4444 624.802 33.6001C625.836 33.7621 627.313 33.9428 629.225 34.1359C631.138 34.3353 633.692 34.5534 636.876 34.7964C642.857 35.4381 646.365 36.0362 647.399 36.5907C649.393 37.3882 651.704 37.9053 654.333 38.1483C657.442 38.547 659 38.9458 659 39.3445C659 40.142 657.966 40.5407 655.891 40.5407C654.533 40.5407 651.069 40.142 645.486 39.3445L635.798 37.9115L632.926 39.3445C631.331 40.223 629.175 40.6591 626.471 40.6591H622.646C620.335 40.6591 619.057 40.7775 618.821 41.0205C618.341 41.6622 615.151 48.5965 609.257 61.8297C603.195 75.2997 599.887 82.0409 599.332 82.0409C598.217 82.0409 597.656 80.9257 597.656 78.689C597.656 76.932 597.737 75.4181 597.893 74.1471C598.373 70.1597 598.927 68.166 599.569 68.166C600.285 68.166 600.84 67.7672 601.245 66.9697C601.644 66.1723 603.438 61.512 606.628 52.9764C609.818 44.4471 611.413 40.0236 611.413 39.7059C611.413 39.3881 610.416 39.2261 608.422 39.2261C605.394 39.1451 601.905 38.7464 597.961 38.0299C594.018 37.3134 591.644 36.5969 590.846 35.8742C588.691 33.9615 587.575 32.3665 587.501 31.0893H587.488ZM612.478 47.2321C612.715 47.2321 612.839 47.1137 612.839 46.8707C612.839 46.6277 612.721 46.5094 612.478 46.5094C612.235 46.5094 612.117 46.6277 612.117 46.8707C612.117 47.1137 612.235 47.2321 612.478 47.2321ZM621.207 37.7869C621.444 37.7869 621.568 37.6685 621.568 37.4256C621.568 37.1826 621.45 37.0642 621.207 37.0642C620.964 37.0642 620.845 37.1826 620.845 37.4256C620.845 37.6685 620.964 37.7869 621.207 37.7869Z" fill="#EFE23A"/>
</svg>
