<svg width="121" height="121" viewBox="0 0 121 121" fill="none" xmlns="http://www.w3.org/2000/svg">
<path d="M54.3345 87.0903H49.5235C48.0067 87.0903 46.519 86.6247 45.0622 85.6914C44.3028 85.2258 43.2382 84.2926 41.8703 82.8918C40.5004 81.4929 39.5517 80.4129 39.0281 79.6555C38.3867 78.6643 38.0659 77.2364 38.0659 75.37V45.7176C38.0659 43.969 38.4156 42.5392 39.1151 41.4321C39.6406 40.6167 40.5584 39.5077 41.8703 38.1088C43.1822 36.71 44.2178 35.7767 44.9752 35.3092C46.4321 34.3779 47.9488 33.9103 49.5235 33.9103H54.3345V38.8083H49.9601C49.4346 38.8083 49.0559 38.8952 48.8221 39.071C48.1227 39.4207 47.174 40.1801 45.9799 41.3452C44.7839 42.5122 43.9241 43.5903 43.3986 44.5815C43.2228 44.9312 43.1358 45.3698 43.1358 45.8934V75.283C43.1358 75.6927 43.2228 76.0694 43.3986 76.4211C43.9241 77.4123 44.7839 78.4923 45.9799 79.6574C47.174 80.8244 48.1227 81.5818 48.8221 81.9315C49.054 82.1073 49.4346 82.1943 49.9601 82.1943H54.3345V87.0922V87.0903Z" fill="#1DED83"/>
<path d="M82.9358 45.7171V75.3696C82.9358 77.1182 82.5861 78.5479 81.8867 79.655C81.3611 80.4144 80.4144 81.4925 79.0445 82.8914C77.6746 84.2902 76.6081 85.2234 75.8526 85.691C74.3939 86.6242 72.9081 87.0899 71.3913 87.0899H66.5803V82.1919H70.9547C71.4203 82.1919 71.799 82.105 72.0908 81.9292C72.8482 81.5794 73.8104 80.822 74.9774 79.655C76.1424 78.49 76.9887 77.4099 77.5143 76.4187C77.7461 75.9531 77.864 75.5744 77.864 75.2807V45.891C77.864 45.4834 77.7461 45.0467 77.5143 44.5791C76.9887 43.5879 76.1444 42.5098 74.9774 41.3428C73.8104 40.1777 72.8482 39.4184 72.0908 39.0687C71.857 38.8929 71.4783 38.8059 70.9547 38.8059H66.5803V33.908H71.3913C72.966 33.908 74.4808 34.3755 75.9396 35.3068C76.697 35.7744 77.7326 36.7057 79.0445 38.1065C80.3564 39.5053 81.2742 40.6144 81.7997 41.4297C82.5571 42.5968 82.9358 44.0246 82.9358 45.7152V45.7171Z" fill="#1DED83"/>
<path d="M101.79 52.2865V68.7135L95.5045 83.8884L83.8905 95.5044L68.7117 101.792H52.2866L37.1097 95.5044L25.5981 83.9947L25.5961 83.9908L25.4937 83.8884L19.2104 68.7135V52.2865L25.4937 37.1115L37.1097 25.4955L52.2866 19.2084H68.7117L83.8905 25.4955L83.9929 25.5999L95.5045 37.1115L95.5065 37.1154L101.79 52.2865Z" stroke="#1DED83" stroke-width="2" stroke-miterlimit="10"/>
<path d="M95.5065 37.1154V37.1115L83.9929 25.5999L83.8905 25.4955L68.7117 19.2084H52.2866L37.1097 25.4955L25.4937 37.1115L19.2104 52.2865V68.7135L25.4937 83.8884L25.5961 83.9908V83.9947L37.1097 95.5044L52.2866 101.792H68.7117L83.8905 95.5044L95.5045 83.8884L101.79 68.7135V52.2865L95.5065 37.1154Z" stroke="#1DED83" stroke-width="2" stroke-miterlimit="10"/>
<path opacity="0.5" d="M110.685 48.5961C108.03 42.1834 107.061 39.8416 104.404 33.4308L109.503 25.3565L95.6435 11.4973L87.5692 16.5962C81.1583 13.9395 78.8166 12.9696 72.4039 10.3148L70.2998 1H50.7002L48.5961 10.3148C42.1834 12.9696 39.8416 13.9395 33.4308 16.5962L25.3565 11.4973L11.4973 25.3565L16.5962 33.4308C13.9395 39.8416 12.9696 42.1834 10.3148 48.5961L1 50.7002V70.2998L10.3148 72.4039C12.9696 78.8166 13.9395 81.1583 16.5962 87.5692L11.4973 95.6435C19.0693 103.216 17.7844 101.931 25.3565 109.503L33.4308 104.404C39.8416 107.061 42.1834 108.03 48.5961 110.685L50.7002 120H70.2998L72.4039 110.685C78.8166 108.03 81.1583 107.061 87.5692 104.404L95.6435 109.503C103.216 101.931 101.931 103.216 109.503 95.6435L104.404 87.5692C107.061 81.1583 108.03 78.8166 110.685 72.4039L120 70.2998V50.7002L110.685 48.5961ZM101.79 68.7135L95.5044 83.8885L83.8904 95.5044L68.7116 101.792H52.2865L37.1096 95.5044L25.598 83.9947V83.9909L25.4936 83.8885L19.2103 68.7135V52.2865L25.4936 37.1115L37.1096 25.4956L52.2865 19.2084H68.7116L83.8904 25.4956L83.9928 25.5999L95.5044 37.1115V37.1154L101.79 52.2865V68.7135Z" fill="#1DED83"/>
<path d="M101.79 52.2865V68.7135L95.5045 83.8884L83.8905 95.5044L68.7117 101.792H52.2866L37.1097 95.5044L25.5981 83.9947L25.5961 83.9908L25.4937 83.8884L19.2104 68.7135V52.2865L25.4937 37.1115L37.1097 25.4955L52.2866 19.2084H68.7117L83.8905 25.4955L83.9929 25.5999L95.5045 37.1115L95.5065 37.1154L101.79 52.2865Z" stroke="#1DED83" stroke-width="2" stroke-miterlimit="10"/>
<path d="M110.685 48.5961C108.03 42.1834 107.061 39.8416 104.404 33.4308L109.503 25.3565L95.6435 11.4973L87.5692 16.5962C81.1583 13.9395 78.8166 12.9696 72.4039 10.3148L70.2998 1H50.7002L48.5961 10.3148C42.1834 12.9696 39.8416 13.9395 33.4308 16.5962L25.3565 11.4973L11.4973 25.3565L16.5962 33.4308C13.9395 39.8416 12.9696 42.1834 10.3148 48.5961L1 50.7002V70.2998L10.3148 72.4039C12.9696 78.8166 13.9395 81.1583 16.5962 87.5692L11.4973 95.6435C19.0693 103.216 17.7844 101.931 25.3565 109.503L33.4308 104.404C39.8416 107.061 42.1834 108.03 48.5961 110.685L50.7002 120H70.2998L72.4039 110.685C78.8166 108.03 81.1583 107.061 87.5692 104.404L95.6435 109.503C103.216 101.931 101.931 103.216 109.503 95.6435L104.404 87.5692C107.061 81.1583 108.03 78.8166 110.685 72.4039L120 70.2998V50.7002L110.685 48.5961Z" stroke="#1DED83" stroke-width="2" stroke-miterlimit="10"/>
</svg>
