<svg width="122" height="122" viewBox="0 0 122 122" fill="none" xmlns="http://www.w3.org/2000/svg">
<path d="M14.0637 50.164C14.3041 50.209 14.5191 50.2911 14.7087 50.4084C14.8984 50.5256 15.0528 50.6781 15.172 50.8638C15.2913 51.0495 15.3695 51.2685 15.4085 51.5187C15.4476 51.7708 15.4379 52.0523 15.3792 52.3631L15.2971 52.8049L16.7847 53.0805L16.6225 53.9582L11.9936 53.0981L12.2458 51.7415C12.3005 51.4424 12.3826 51.1824 12.4901 50.9655C12.5976 50.7485 12.7286 50.5706 12.883 50.4377C13.0374 50.3048 13.2134 50.2129 13.4108 50.166C13.6082 50.1191 13.8252 50.1171 14.0617 50.1601L14.0637 50.164ZM13.9542 51.0886C13.8311 51.0652 13.7157 51.0652 13.6082 51.0847C13.5007 51.1043 13.4049 51.1473 13.3189 51.2137C13.2329 51.2802 13.1606 51.3701 13.1 51.4835C13.0394 51.5969 12.9944 51.7356 12.9632 51.9018L12.8791 52.3592L14.5758 52.6739L14.6657 52.1891C14.6931 52.0386 14.697 51.9018 14.6775 51.7767C14.6579 51.6535 14.6169 51.5441 14.5524 51.4522C14.4898 51.3584 14.4077 51.2802 14.3061 51.2196C14.2044 51.159 14.0871 51.114 13.9523 51.0906L13.9542 51.0886Z" fill="#F0B537"/>
<path d="M16.4523 46.495C16.7299 46.5712 16.9723 46.6826 17.1814 46.8253C17.3906 46.968 17.5548 47.1361 17.678 47.3296C17.8011 47.5232 17.8773 47.7401 17.9086 47.9806C17.9399 48.221 17.9164 48.479 17.8402 48.7547C17.7679 49.0166 17.6643 49.2394 17.5313 49.4232C17.3984 49.6089 17.2362 49.7516 17.0446 49.8532C16.8531 49.9549 16.6322 50.0116 16.3839 50.0253C16.1357 50.0389 15.8581 50.0038 15.5551 49.9177C15.2756 49.8396 15.0312 49.7301 14.824 49.5854C14.6168 49.4427 14.4526 49.2727 14.3334 49.0792C14.2122 48.8856 14.1379 48.6687 14.1086 48.4282C14.0793 48.1878 14.1027 47.9337 14.177 47.662C14.2493 47.3981 14.3549 47.1733 14.4898 46.9895C14.6246 46.8058 14.7888 46.6631 14.9804 46.5614C15.172 46.4598 15.3928 46.4031 15.6391 46.3914C15.8854 46.3796 16.1572 46.4129 16.4523 46.495ZM16.2295 47.3824C15.8639 47.2808 15.5707 47.273 15.3479 47.3609C15.125 47.4469 14.9765 47.6248 14.9022 47.8926C14.8612 48.0412 14.8553 48.1741 14.8846 48.2953C14.9139 48.4165 14.9687 48.524 15.0508 48.6178C15.1329 48.7117 15.2365 48.7938 15.3616 48.8622C15.4867 48.9306 15.6255 48.9853 15.7799 49.0283C16.1474 49.13 16.4445 49.1339 16.6732 49.0361C16.9 48.9404 17.0505 48.7625 17.1208 48.5064C17.1599 48.3657 17.1658 48.2347 17.1384 48.1155C17.1111 47.9962 17.0563 47.8887 16.9723 47.7968C16.8902 47.705 16.7846 47.6229 16.6576 47.5525C16.5305 47.4821 16.3878 47.4254 16.2295 47.3824Z" fill="#F0B537"/>
<path d="M17.6682 46.3093C17.7933 46.1411 17.9145 45.9418 18.0357 45.7091C18.1569 45.4765 18.2527 45.2635 18.327 45.066C18.4012 44.8666 18.4462 44.7122 18.4579 44.6028C18.4697 44.4933 18.4677 44.3975 18.4482 44.3154C18.4286 44.2333 18.3954 44.1629 18.3485 44.1082C18.3016 44.0515 18.2429 44.0105 18.1725 43.9851C18.1022 43.9596 18.0357 43.9518 17.9692 43.9636C17.9028 43.9753 17.8383 44.0085 17.7738 44.0672C17.7093 44.1238 17.6428 44.2099 17.5783 44.3213C17.5138 44.4327 17.4493 44.5734 17.3848 44.7455L17.0446 45.6525L16.4582 45.4335L16.7808 44.5734C16.857 44.3682 16.9019 44.2157 16.9117 44.1141C16.9234 44.0124 16.9195 43.9245 16.9 43.8541C16.8804 43.7837 16.8492 43.7251 16.8042 43.6821C16.7612 43.6391 16.7084 43.6058 16.6478 43.5824C16.5892 43.5609 16.5325 43.5531 16.4758 43.5609C16.4191 43.5687 16.3644 43.5941 16.3097 43.641C16.2549 43.6879 16.1982 43.7603 16.1415 43.86C16.0829 43.9596 16.0223 44.0965 15.9578 44.2665C15.9011 44.419 15.8444 44.6028 15.7897 44.8178C15.735 45.0328 15.6959 45.2478 15.6744 45.4648L15.0293 45.2244C15.0684 45.023 15.1173 44.8119 15.1759 44.5891C15.2345 44.3662 15.301 44.1493 15.3792 43.9401C15.5844 43.3928 15.8092 43.0233 16.0575 42.8259C16.3057 42.6285 16.5755 42.5874 16.8668 42.6969C16.945 42.7262 17.0192 42.7692 17.0877 42.8239C17.1561 42.8787 17.2167 42.9471 17.2655 43.0272C17.3144 43.1074 17.3515 43.1992 17.375 43.3009C17.3985 43.4025 17.4043 43.5159 17.3945 43.6371C17.4512 43.5335 17.5197 43.4377 17.5998 43.3537C17.6799 43.2696 17.7679 43.2032 17.8656 43.1523C17.9634 43.1035 18.065 43.0741 18.1745 43.0644C18.284 43.0546 18.3973 43.0722 18.5107 43.1152C18.8723 43.2501 19.0893 43.5042 19.1616 43.8775C19.234 44.2509 19.1538 44.7435 18.9251 45.3573C18.8528 45.5508 18.7668 45.7502 18.6671 45.9554C18.5674 46.1607 18.4579 46.364 18.3367 46.5692L17.6643 46.3132L17.6682 46.3093Z" fill="#F0B537"/>
<path d="M19.5155 39.0865C19.8184 39.2311 20.0608 39.3992 20.2407 39.5908C20.4205 39.7823 20.5476 39.9895 20.6218 40.2104C20.6961 40.4333 20.7176 40.6659 20.6883 40.9063C20.659 41.1487 20.5867 41.3911 20.4694 41.6354C20.4303 41.7175 20.3853 41.7977 20.3345 41.8739C20.2837 41.9521 20.2348 42.0186 20.1859 42.0772L21.4761 42.693L21.0968 43.4866L16.5032 41.2953L16.8296 40.6092L17.3261 40.8223C17.2734 40.7148 17.2303 40.6092 17.1952 40.5017C17.16 40.3961 17.1385 40.2886 17.1307 40.1811C17.1228 40.0736 17.1287 39.9641 17.1482 39.8547C17.1678 39.7452 17.2088 39.6299 17.2655 39.5087C17.3594 39.3132 17.4806 39.1588 17.6311 39.0434C17.7816 38.9281 17.9536 38.8538 18.1471 38.8206C18.3406 38.7874 18.5518 38.7913 18.7824 38.8343C19.0131 38.8773 19.2555 38.9613 19.5115 39.0825L19.5155 39.0865ZM19.1499 39.9348C18.9681 39.8488 18.8059 39.7863 18.6671 39.7511C18.5263 39.7159 18.4032 39.7042 18.2976 39.712C18.1921 39.7217 18.1041 39.753 18.0318 39.8038C17.9595 39.8566 17.9028 39.927 17.8598 40.0189C17.7953 40.1537 17.7894 40.3082 17.8383 40.4821C17.8891 40.6561 17.9732 40.8555 18.0943 41.0823L19.537 41.7703C19.5917 41.7195 19.6464 41.6511 19.707 41.5651C19.7657 41.481 19.8184 41.3891 19.8634 41.2953C19.924 41.1702 19.9514 41.0432 19.9494 40.9161C19.9455 40.789 19.9142 40.6659 19.8536 40.5467C19.793 40.4274 19.7031 40.3179 19.5839 40.2124C19.4646 40.1068 19.32 40.015 19.148 39.9329L19.1499 39.9348Z" fill="#F0B537"/>
<path d="M21.5699 35.6265C21.8181 35.7731 22.0253 35.9413 22.1895 36.1328C22.3537 36.3244 22.471 36.5296 22.5395 36.7486C22.6079 36.9675 22.6274 37.1962 22.5942 37.4366C22.561 37.6771 22.473 37.9195 22.3283 38.1658C22.1915 38.4003 22.0332 38.588 21.8572 38.7326C21.6813 38.8773 21.4858 38.9731 21.2747 39.0219C21.0636 39.0708 20.8369 39.0689 20.5925 39.018C20.3482 38.9672 20.0901 38.8597 19.8204 38.7014C19.5702 38.5548 19.363 38.3847 19.2007 38.1931C19.0385 38.0016 18.9232 37.7963 18.8567 37.5774C18.7902 37.3584 18.7746 37.1297 18.8078 36.8913C18.8411 36.6528 18.929 36.4104 19.0717 36.17C19.2105 35.9334 19.3688 35.7438 19.5467 35.6011C19.7246 35.4584 19.9201 35.3626 20.1312 35.3138C20.3423 35.2669 20.5691 35.2669 20.8114 35.3196C21.0538 35.3724 21.306 35.4741 21.5699 35.6304V35.6265ZM21.1242 36.426C20.7978 36.2345 20.5163 36.1504 20.2778 36.1758C20.0393 36.2012 19.8517 36.3361 19.7109 36.5746C19.6327 36.7075 19.5917 36.8346 19.5897 36.9577C19.5858 37.0809 19.6132 37.2001 19.6679 37.3115C19.7226 37.4249 19.8008 37.5305 19.9044 37.6282C20.008 37.7259 20.1273 37.8159 20.2641 37.896C20.5925 38.0895 20.8799 38.1697 21.1242 38.1345C21.3686 38.0993 21.5582 37.9683 21.693 37.7377C21.7673 37.6106 21.8064 37.4875 21.8103 37.3643C21.8142 37.2412 21.7888 37.1239 21.7321 37.0144C21.6754 36.903 21.5953 36.7974 21.4917 36.6977C21.3861 36.5961 21.263 36.5042 21.1223 36.4221L21.1242 36.426Z" fill="#F0B537"/>
<path d="M23.8785 32.323C24.0876 32.4715 24.2714 32.6514 24.4278 32.8605C24.5861 33.0697 24.6916 33.2867 24.7483 33.5134C24.805 33.7402 24.8089 33.9708 24.7601 34.2054C24.7112 34.4419 24.6037 34.6746 24.4395 34.9052C24.2772 35.1339 24.0974 35.3079 23.9019 35.4271C23.7065 35.5464 23.4934 35.6089 23.2588 35.6148C23.0262 35.6206 22.7721 35.5698 22.4965 35.4584C22.2208 35.347 21.9218 35.1789 21.5992 34.9482C21.2396 34.6921 20.9424 34.4419 20.7059 34.1995C20.4694 33.9572 20.3032 33.703 20.2016 33.4411C20.1019 33.1772 20.0667 32.9114 20.0999 32.6416C20.1312 32.3719 20.2094 32.106 20.3306 31.848C20.4127 31.674 20.4811 31.5411 20.5339 31.4492C20.5867 31.3573 20.6355 31.2733 20.6785 31.199C20.7235 31.1247 20.7704 31.0407 20.8212 30.9488C20.8721 30.8569 20.9209 30.7553 20.9698 30.6458L21.6266 31.113C21.5562 31.2615 21.4487 31.457 21.306 31.7033C21.1614 31.9496 21.048 32.1646 20.9678 32.3484C20.9327 32.4305 20.9072 32.5126 20.8916 32.5966C20.874 32.6807 20.8701 32.7745 20.8779 32.8762C20.8857 32.9798 20.9112 33.0814 20.9561 33.185C21.0011 33.2867 21.0499 33.3766 21.1066 33.4528C21.1614 33.5291 21.22 33.6033 21.2806 33.6757C21.3412 33.748 21.4038 33.8145 21.4644 33.8731C21.4311 33.7715 21.4077 33.6581 21.3998 33.533C21.392 33.4079 21.3959 33.2886 21.4135 33.1753C21.4311 33.0638 21.4624 32.9505 21.5074 32.8351C21.5523 32.7217 21.6168 32.6045 21.6989 32.4872C21.8221 32.3132 21.9667 32.1783 22.1309 32.0806C22.2951 31.9829 22.473 31.9281 22.6646 31.9125C22.8561 31.8968 23.0555 31.9242 23.2627 31.9965C23.4719 32.0689 23.6752 32.1744 23.8746 32.3171L23.8785 32.323ZM23.3761 33.0795C22.8522 32.7061 22.4574 32.7061 22.1915 33.0795C22.0918 33.2202 22.043 33.3903 22.0449 33.5916C22.0469 33.793 22.084 34.0138 22.1505 34.2523L22.1798 34.2738C22.3889 34.4224 22.5825 34.5377 22.7564 34.6198C22.9324 34.7019 23.0927 34.7508 23.2354 34.7664C23.38 34.7821 23.5032 34.7625 23.6048 34.7058C23.7065 34.6511 23.8003 34.5651 23.8824 34.4498C24.029 34.2425 24.0583 34.0158 23.9703 33.7715C23.8824 33.5271 23.683 33.2945 23.3761 33.0756V33.0795Z" fill="#F0B537"/>
<path d="M27.2231 31.2518L24.938 31.115L26.3317 32.2995L25.7707 32.9583L22.9832 30.5872L23.5442 29.9284L24.723 30.9312L24.3828 28.9393L25.0846 28.1144L25.3934 30.3252L27.9502 30.3917L27.2192 31.2498L27.2231 31.2518Z" fill="#F0B537"/>
<path d="M29.9011 28.4623L29.5492 28.1378C29.5512 28.2493 29.5492 28.3607 29.5355 28.4682C29.5218 28.5757 29.5003 28.6832 29.4632 28.7907C29.4261 28.8982 29.3772 29.0018 29.3107 29.1054C29.2462 29.2091 29.1622 29.3107 29.0625 29.4104C28.9296 29.5414 28.7927 29.6371 28.6539 29.6977C28.5151 29.7583 28.3764 29.7877 28.2376 29.7837C28.1007 29.7818 27.9639 29.7486 27.831 29.6841C27.6981 29.6196 27.573 29.5277 27.4537 29.4084C27.3325 29.2853 27.2465 29.1465 27.1957 28.9901C27.1449 28.8337 27.1351 28.6656 27.1683 28.4858C27.2016 28.306 27.2758 28.1144 27.3931 27.915C27.5104 27.7137 27.6766 27.5084 27.8916 27.2953L28.2317 26.9591L28.0773 26.8027C28.0108 26.7363 27.9424 26.6855 27.8701 26.6503C27.7978 26.6151 27.7235 26.5995 27.6433 26.6034C27.5651 26.6073 27.4811 26.6327 27.3951 26.6776C27.3091 26.7226 27.2152 26.793 27.1195 26.8907C26.965 27.0432 26.8321 27.2093 26.7168 27.3931C26.6014 27.5768 26.5057 27.7684 26.4275 27.9697L25.9329 27.4713C26.0092 27.2993 26.1128 27.1155 26.2437 26.922C26.3747 26.7285 26.5272 26.5447 26.7031 26.3708C26.8966 26.1792 27.0804 26.0345 27.2543 25.9348C27.4283 25.8351 27.5964 25.7765 27.7587 25.7628C27.9209 25.7472 28.0773 25.7745 28.2298 25.841C28.3803 25.9094 28.5288 26.0169 28.6754 26.1635L30.4328 27.9404L29.8972 28.4702L29.9011 28.4623ZM28.6735 27.4009L28.2923 27.7782C28.1867 27.8837 28.1066 27.9815 28.0538 28.0753C28.001 28.1691 27.9678 28.2551 27.958 28.3372C27.9483 28.4193 27.9541 28.4936 27.9795 28.562C28.005 28.6304 28.0441 28.691 28.0949 28.7438C28.2004 28.8494 28.3138 28.8963 28.437 28.8846C28.5601 28.8728 28.6813 28.8083 28.7986 28.691C28.8866 28.605 28.9452 28.4838 28.9765 28.3275C29.0077 28.1711 29.0214 27.9795 29.0175 27.7489L28.6735 27.4009Z" fill="#F0B537"/>
<path d="M35.8591 23.6752L34.1996 21.2884L33.0306 22.0996L34.6902 24.4864L33.9806 24.979L31.891 21.9745L34.4752 20.1781L36.5629 23.1826L35.8552 23.6732L35.8591 23.6752Z" fill="#F0B537"/>
<path d="M39.1119 19.5037C39.28 19.795 39.3816 20.0706 39.4227 20.3306C39.4618 20.5906 39.4481 20.8329 39.3836 21.0577C39.3171 21.2825 39.2037 21.4858 39.0435 21.6676C38.8832 21.8494 38.6838 22.0097 38.4492 22.1446C38.3691 22.1895 38.287 22.2306 38.2029 22.2658C38.1169 22.301 38.0387 22.3283 37.9644 22.3479L38.676 23.5872L37.9136 24.0251L35.3802 19.6112L36.039 19.232L36.3263 19.6894C36.3439 19.5721 36.3694 19.4588 36.4006 19.3512C36.4319 19.2437 36.4749 19.144 36.5296 19.0502C36.5844 18.9564 36.6508 18.8704 36.731 18.7922C36.8111 18.714 36.9089 18.6397 37.0242 18.5733C37.2119 18.4657 37.3995 18.4071 37.5891 18.3993C37.7787 18.3915 37.9605 18.4266 38.1404 18.5087C38.3182 18.5908 38.4903 18.714 38.6545 18.8821C38.8187 19.0502 38.9731 19.2555 39.1138 19.5018L39.1119 19.5037ZM38.33 19.9924C38.2303 19.8165 38.1325 19.6757 38.0368 19.5663C37.941 19.4568 37.8471 19.3767 37.7553 19.3258C37.6634 19.2731 37.5735 19.2496 37.4836 19.2516C37.3956 19.2535 37.3076 19.2809 37.2197 19.3297C37.0907 19.404 36.9968 19.5272 36.9382 19.6992C36.8795 19.8712 36.8365 20.0843 36.8092 20.3384L37.6048 21.7263C37.679 21.7145 37.7631 21.6911 37.8608 21.6539C37.9586 21.6168 38.0524 21.5738 38.1443 21.521C38.2655 21.4526 38.3612 21.3646 38.4316 21.2571C38.502 21.1496 38.545 21.0304 38.5626 20.8994C38.5802 20.7684 38.5685 20.6257 38.5313 20.4713C38.4942 20.3169 38.4258 20.1586 38.3319 19.9944L38.33 19.9924Z" fill="#F0B537"/>
<path d="M42.7672 17.8246C42.8884 18.0865 42.9627 18.3426 42.9881 18.5928C43.0135 18.843 42.994 19.0795 42.9256 19.2985C42.8572 19.5174 42.7418 19.7168 42.5796 19.8966C42.4173 20.0765 42.2043 20.225 41.9462 20.3443C41.6999 20.4576 41.4634 20.5241 41.2367 20.5417C41.0099 20.5593 40.7949 20.528 40.5936 20.4479C40.3922 20.3677 40.2065 20.2368 40.0345 20.055C39.8625 19.8732 39.712 19.6406 39.579 19.3552C39.4578 19.0913 39.3836 18.8352 39.3582 18.583C39.3327 18.3328 39.3562 18.0983 39.4266 17.8813C39.4969 17.6643 39.6123 17.4669 39.7765 17.289C39.9407 17.1111 40.1498 16.9625 40.4039 16.8453C40.6522 16.7299 40.8907 16.6635 41.1174 16.6478C41.3461 16.6302 41.5592 16.6635 41.7625 16.7436C41.9638 16.8257 42.1495 16.9547 42.3196 17.1346C42.4897 17.3144 42.6382 17.5431 42.7672 17.8226V17.8246ZM41.9462 18.2292C41.786 17.8852 41.6022 17.6565 41.393 17.5431C41.1839 17.4297 40.9513 17.4317 40.6991 17.549C40.5603 17.6135 40.4528 17.6956 40.3805 17.7953C40.3082 17.895 40.2612 18.0064 40.2417 18.1315C40.2221 18.2546 40.228 18.3876 40.2573 18.5283C40.2867 18.669 40.3336 18.8098 40.4 18.9544C40.5603 19.3004 40.7519 19.5291 40.9728 19.6406C41.1937 19.752 41.4243 19.75 41.6667 19.6406C41.7996 19.58 41.9032 19.4979 41.9756 19.4001C42.0498 19.3004 42.0948 19.191 42.1104 19.0678C42.128 18.9447 42.1222 18.8117 42.0928 18.669C42.0635 18.5263 42.0147 18.3817 41.9462 18.2331V18.2292Z" fill="#F0B537"/>
<path d="M45.975 15.5297L44.1317 16.1963L45.1188 18.929L44.292 19.2281L43.0487 15.7877L45.717 14.824L45.973 15.5317L45.975 15.5297Z" fill="#F0B537"/>
<path d="M50.4006 15.3557C50.4866 15.6802 50.5159 15.9734 50.4866 16.2354C50.4572 16.4973 50.383 16.728 50.2598 16.9274C50.1386 17.1268 49.9744 17.2949 49.7731 17.4297C49.5698 17.5646 49.3372 17.6663 49.0752 17.7366C48.9873 17.7601 48.8973 17.7777 48.8055 17.7894C48.7136 17.8011 48.6295 17.807 48.5533 17.807L48.9208 19.189L48.0705 19.4138L46.7647 14.4957L47.4997 14.3002L47.66 14.8162C47.7089 14.7068 47.7616 14.6051 47.8183 14.5093C47.877 14.4136 47.9434 14.3295 48.0197 14.2533C48.0959 14.177 48.1839 14.1106 48.2796 14.0558C48.3774 14.0011 48.4908 13.9561 48.6198 13.921C48.8289 13.8662 49.0244 13.8584 49.2101 13.8975C49.3939 13.9386 49.562 14.0207 49.7144 14.1458C49.8649 14.2709 49.9998 14.4351 50.1152 14.6384C50.2305 14.8416 50.3263 15.0821 50.3986 15.3557H50.4006ZM49.517 15.6275C49.4662 15.432 49.4075 15.2697 49.343 15.1407C49.2785 15.0117 49.2082 14.9101 49.1339 14.8358C49.0576 14.7615 48.9775 14.7146 48.8915 14.6931C48.8055 14.6735 48.7136 14.6755 48.6159 14.7009C48.4712 14.74 48.35 14.8338 48.2503 14.9843C48.1506 15.1349 48.0529 15.3303 47.9591 15.5688L48.3696 17.115C48.4438 17.1228 48.5318 17.1209 48.6354 17.1111C48.739 17.1013 48.8407 17.0818 48.9423 17.0564C49.0772 17.0212 49.1925 16.9606 49.2883 16.8746C49.3841 16.7905 49.4564 16.685 49.5072 16.5638C49.5581 16.4406 49.5854 16.2999 49.5874 16.1416C49.5893 15.9832 49.5678 15.8132 49.519 15.6294L49.517 15.6275Z" fill="#F0B537"/>
<path d="M53.6924 16.685L53.5888 16.2158C53.5262 16.3096 53.4598 16.3976 53.3894 16.4797C53.319 16.5618 53.2369 16.6361 53.147 16.7026C53.0571 16.769 52.9555 16.8277 52.8421 16.8746C52.7307 16.9215 52.6036 16.9586 52.4648 16.9821C52.2811 17.0134 52.113 17.0153 51.9644 16.986C51.8158 16.9567 51.6849 16.9 51.5734 16.8198C51.462 16.7397 51.3701 16.6341 51.2978 16.5051C51.2255 16.3761 51.1747 16.2295 51.1454 16.0633C51.116 15.8933 51.1238 15.7291 51.1708 15.5727C51.2177 15.4163 51.3056 15.2717 51.4366 15.1427C51.5656 15.0136 51.7357 14.8983 51.9468 14.8006C52.1579 14.7028 52.412 14.6286 52.7111 14.5758L53.1822 14.4937L53.1451 14.2767C53.1294 14.1848 53.1021 14.1027 53.063 14.0324C53.0239 13.962 52.9711 13.9073 52.9046 13.8643C52.8382 13.8232 52.7561 13.7958 52.6583 13.7822C52.5606 13.7704 52.4453 13.7763 52.3104 13.7997C52.0973 13.8369 51.8921 13.8975 51.6927 13.9815C51.4933 14.0656 51.3056 14.1692 51.1258 14.2904L51.0046 13.5984C51.1649 13.5007 51.3545 13.4088 51.5734 13.3247C51.7924 13.2407 52.023 13.1762 52.2654 13.1351C52.5332 13.0882 52.7658 13.0745 52.9672 13.0921C53.1685 13.1097 53.3386 13.1586 53.4813 13.2387C53.624 13.3189 53.7374 13.4303 53.8234 13.573C53.9094 13.7157 53.97 13.8877 54.0052 14.091L54.4332 16.554L53.6924 16.683V16.685ZM53.2917 15.1133L52.7639 15.2052C52.6173 15.2306 52.4961 15.2658 52.3983 15.3127C52.3006 15.3596 52.2263 15.4124 52.1696 15.473C52.1149 15.5336 52.0778 15.6001 52.0602 15.6704C52.0426 15.7408 52.0387 15.8131 52.0524 15.8855C52.0778 16.0321 52.1442 16.1357 52.2517 16.1963C52.3593 16.2569 52.4961 16.2725 52.6583 16.2451C52.7795 16.2236 52.8968 16.1591 53.0121 16.0477C53.1275 15.9382 53.2487 15.7877 53.3757 15.5962L53.2917 15.1133Z" fill="#F0B537"/>
<path d="M57.8345 16.2276L57.5823 14.3158L57.4729 13.4323L57.2989 14.0617L56.8943 15.4476L56.3411 15.4945L55.7546 14.1927L55.5044 13.6004L55.5552 14.4741L55.6432 16.4152L54.8926 16.4797L54.8085 12.8145L55.8055 12.7285L56.3156 13.8271L56.5678 14.4409L56.7125 13.8212L57.0467 12.621L58.0612 12.5331L58.6086 16.1591L57.8306 16.2256L57.8345 16.2276Z" fill="#F0B537"/>
<path d="M61.3589 16.1435L61.3335 14.6032L59.9105 14.6266L59.9359 16.167L59.0719 16.1806L59.0132 12.5213L59.8772 12.5077L59.8987 13.8799L61.3218 13.8564L61.3003 12.4842L62.1604 12.4705L62.219 16.1298L61.3589 16.1435Z" fill="#F0B537"/>
<path d="M66.3768 14.6168C66.3514 14.9042 66.2888 15.1622 66.1872 15.3948C66.0855 15.6274 65.9506 15.819 65.7825 15.9773C65.6144 16.1337 65.415 16.2491 65.1863 16.3233C64.9557 16.3976 64.6976 16.423 64.4142 16.3976C64.1444 16.3742 63.906 16.3136 63.6988 16.2178C63.4935 16.12 63.3215 15.9871 63.1866 15.819C63.0517 15.6489 62.954 15.4437 62.8954 15.2013C62.8367 14.9589 62.8211 14.6813 62.8465 14.3686C62.8719 14.0793 62.9344 13.8193 63.0381 13.5906C63.1417 13.3599 63.2765 13.1684 63.4446 13.0139C63.6128 12.8595 63.8121 12.7461 64.0428 12.6738C64.2735 12.6015 64.5276 12.5761 64.8091 12.5995C65.0827 12.623 65.3212 12.6836 65.5264 12.7813C65.7317 12.8791 65.9037 13.0139 66.0386 13.184C66.1735 13.3541 66.2693 13.5593 66.3279 13.7997C66.3865 14.0402 66.4022 14.3119 66.3748 14.6188L66.3768 14.6168ZM65.4619 14.5621C65.4952 14.1848 65.4483 13.8936 65.3212 13.6922C65.1961 13.4889 64.9928 13.3775 64.7152 13.3541C64.5628 13.3404 64.4298 13.3599 64.3165 13.4108C64.2031 13.4616 64.1073 13.5359 64.0291 13.6336C63.9509 13.7313 63.8903 13.8486 63.8454 13.9854C63.8004 14.1223 63.773 14.2689 63.7594 14.4253C63.7261 14.8064 63.7789 15.0997 63.9157 15.3049C64.0526 15.5102 64.2539 15.6255 64.5198 15.647C64.6664 15.6587 64.7954 15.6411 64.9068 15.5923C65.0182 15.5434 65.114 15.4691 65.1902 15.3714C65.2665 15.2736 65.3271 15.1544 65.372 15.0156C65.417 14.8768 65.4483 14.7263 65.4619 14.5641V14.5621Z" fill="#F0B537"/>
<path d="M70.296 14.2122L68.3647 13.8779L67.8682 16.7417L67.0023 16.5911L67.6278 12.9866L70.4231 13.4714L70.2941 14.2122H70.296Z" fill="#F0B537"/>
<path d="M74.2173 16.2901C74.143 16.5677 74.0374 16.812 73.8967 17.0231C73.756 17.2323 73.5898 17.4004 73.3982 17.5255C73.2067 17.6506 72.9897 17.7308 72.7493 17.764C72.5088 17.7972 72.2508 17.7777 71.9752 17.7034C71.7133 17.633 71.4885 17.5333 71.3028 17.4024C71.1171 17.2714 70.9704 17.1111 70.8688 16.9195C70.7652 16.7299 70.7046 16.509 70.689 16.2608C70.6733 16.0125 70.7046 15.735 70.7847 15.432C70.859 15.1505 70.9665 14.9061 71.1073 14.697C71.248 14.4878 71.4142 14.3236 71.6077 14.2005C71.8012 14.0773 72.0162 14.0011 72.2567 13.9679C72.4971 13.9366 72.7512 13.9561 73.0229 14.0265C73.2868 14.0969 73.5136 14.1985 73.6993 14.3295C73.885 14.4624 74.0296 14.6247 74.1332 14.8143C74.2368 15.0058 74.2955 15.2248 74.3111 15.4711C74.3268 15.7174 74.2955 15.9891 74.2173 16.2862V16.2901ZM73.3259 16.077C73.4237 15.7095 73.4276 15.4163 73.3376 15.1954C73.2477 14.9746 73.0698 14.8279 72.8001 14.7576C72.6515 14.7185 72.5167 14.7146 72.3974 14.7439C72.2782 14.7752 72.1707 14.8319 72.0768 14.914C71.983 14.9961 71.9029 15.1016 71.8344 15.2287C71.768 15.3557 71.7132 15.4945 71.6722 15.6489C71.5745 16.0184 71.5745 16.3155 71.6722 16.5423C71.7719 16.769 71.9498 16.9156 72.2078 16.984C72.3485 17.0212 72.4795 17.0251 72.5988 16.9958C72.718 16.9664 72.8236 16.9098 72.9154 16.8257C73.0073 16.7417 73.0874 16.6361 73.1559 16.5071C73.2243 16.3781 73.279 16.2354 73.322 16.077H73.3259Z" fill="#F0B537"/>
<path d="M78.0955 18.8587C78.2539 18.9955 78.4435 19.1323 78.6663 19.2692C78.8872 19.406 79.0944 19.5194 79.286 19.6073C79.4795 19.6973 79.63 19.752 79.7395 19.7735C79.847 19.795 79.9428 19.7989 80.0268 19.7852C80.1109 19.7715 80.1832 19.7442 80.2418 19.7031C80.3005 19.6601 80.3474 19.6054 80.3787 19.537C80.41 19.4685 80.4217 19.4021 80.4158 19.3356C80.41 19.2692 80.3806 19.2007 80.3279 19.1323C80.2751 19.0639 80.1949 18.9916 80.0894 18.9193C79.9838 18.8469 79.847 18.7707 79.6808 18.6945L78.8012 18.2879L79.0651 17.719L79.8978 18.1041C80.0952 18.196 80.2457 18.2507 80.3474 18.2703C80.449 18.2898 80.5351 18.2918 80.6074 18.2781C80.6797 18.2644 80.7403 18.2371 80.7872 18.196C80.8341 18.155 80.8713 18.1061 80.8986 18.0474C80.924 17.9908 80.9358 17.9341 80.9338 17.8774C80.9319 17.8207 80.9084 17.764 80.8674 17.7054C80.8263 17.6467 80.7559 17.5861 80.6621 17.5216C80.5663 17.4571 80.4354 17.3848 80.2712 17.3085C80.1226 17.2401 79.9447 17.1698 79.7356 17.0994C79.5264 17.029 79.3133 16.9743 79.0983 16.9352L79.3876 16.3116C79.585 16.3664 79.7923 16.4309 80.0112 16.5051C80.2301 16.5794 80.4393 16.6635 80.6426 16.7573C81.1723 17.0016 81.5261 17.2558 81.702 17.5177C81.878 17.7796 81.9014 18.0514 81.7705 18.3348C81.7353 18.411 81.6864 18.4814 81.6278 18.5459C81.5672 18.6104 81.4948 18.6651 81.4127 18.7081C81.3287 18.7512 81.2349 18.7805 81.1313 18.7961C81.0277 18.8118 80.9143 18.8098 80.795 18.7902C80.8947 18.8548 80.9827 18.931 81.0609 19.017C81.1391 19.103 81.1997 19.1968 81.2407 19.2965C81.2837 19.3962 81.3052 19.5018 81.3052 19.6112C81.3052 19.7207 81.2798 19.8321 81.229 19.9436C81.0667 20.2935 80.797 20.4909 80.4197 20.5358C80.0425 20.5788 79.5557 20.4635 78.9615 20.1879C78.7738 20.1019 78.5823 20.0002 78.3848 19.8849C78.1874 19.7696 77.9919 19.6445 77.7984 19.5096L78.1033 18.8567L78.0955 18.8587Z" fill="#F0B537"/>
<path d="M83.3558 22.3928L83.5747 21.9667C83.4672 21.9999 83.3597 22.0253 83.2541 22.0429C83.1486 22.0605 83.0372 22.0664 82.9257 22.0605C82.8124 22.0547 82.699 22.0332 82.5817 21.998C82.4644 21.9628 82.3452 21.91 82.222 21.8396C82.0598 21.7458 81.9308 21.6403 81.835 21.523C81.7392 21.4037 81.6747 21.2786 81.6395 21.1457C81.6043 21.0128 81.6004 20.874 81.6278 20.7274C81.6552 20.5808 81.7099 20.4361 81.792 20.2915C81.878 20.141 81.9894 20.0217 82.1263 19.9299C82.2631 19.8399 82.4214 19.7852 82.6052 19.7676C82.787 19.75 82.9922 19.7715 83.217 19.8321C83.4418 19.8908 83.6842 19.9963 83.9481 20.1468L84.3644 20.3853L84.4739 20.1937C84.5208 20.1116 84.5501 20.0335 84.5658 19.9533C84.5814 19.8732 84.5756 19.7969 84.5501 19.7226C84.5247 19.6484 84.4798 19.5741 84.4133 19.5037C84.3469 19.4333 84.253 19.363 84.1357 19.2946C83.9481 19.187 83.7507 19.103 83.5434 19.0404C83.3362 18.9779 83.1251 18.9368 82.9101 18.9173L83.26 18.3074C83.4477 18.3348 83.651 18.3856 83.8718 18.4599C84.0927 18.5342 84.3117 18.6338 84.5267 18.755C84.7613 18.8899 84.9509 19.0287 85.0936 19.1695C85.2363 19.3102 85.3379 19.4588 85.3946 19.6093C85.4513 19.7598 85.4689 19.9201 85.4435 20.0843C85.4181 20.2485 85.3555 20.4205 85.2519 20.5984L84.0087 22.7662L83.3558 22.3928ZM84.0497 20.9268L83.5845 20.6609C83.4555 20.5866 83.3382 20.5358 83.2346 20.5104C83.131 20.485 83.0391 20.4772 82.957 20.4889C82.8749 20.5006 82.8045 20.528 82.7459 20.5691C82.6873 20.6121 82.6384 20.6648 82.6013 20.7293C82.527 20.8584 82.5133 20.9815 82.5563 21.0968C82.6013 21.2122 82.6951 21.3119 82.8397 21.394C82.9453 21.4546 83.0782 21.48 83.2366 21.4682C83.3949 21.4565 83.5845 21.4194 83.8054 21.3529L84.0497 20.9287V20.9268Z" fill="#F0B537"/>
<path d="M88.4772 23.5462C88.3306 23.7573 88.1527 23.943 87.9455 24.1033C87.7383 24.2635 87.5214 24.373 87.2966 24.4317C87.0718 24.4903 86.8411 24.4962 86.6046 24.4512C86.3681 24.4043 86.1335 24.3007 85.9009 24.1404C85.6702 23.9801 85.4943 23.8042 85.3731 23.6087C85.2519 23.4152 85.1874 23.2021 85.1776 22.9695C85.1678 22.7369 85.2167 22.4828 85.3242 22.2052C85.4317 21.9276 85.5979 21.6285 85.8246 21.3021C86.0768 20.9385 86.3231 20.6394 86.5616 20.401C86.802 20.1625 87.0522 19.9924 87.3142 19.8888C87.5761 19.7852 87.8419 19.7481 88.1137 19.7774C88.3834 19.8067 88.6493 19.879 88.9092 19.9983C89.0852 20.0784 89.2181 20.1449 89.3119 20.1957C89.4038 20.2465 89.4898 20.2954 89.5641 20.3384C89.6384 20.3814 89.7224 20.4283 89.8162 20.4772C89.9081 20.5261 90.0098 20.5749 90.1212 20.6218L89.6618 21.2845C89.5133 21.2161 89.3158 21.1125 89.0676 20.9698C88.8193 20.829 88.6023 20.7176 88.4186 20.6394C88.3365 20.6062 88.2544 20.5808 88.1703 20.5652C88.0863 20.5495 87.9925 20.5456 87.8908 20.5554C87.7892 20.5652 87.6856 20.5925 87.5839 20.6375C87.4823 20.6844 87.3924 20.7352 87.3181 20.7899C87.2418 20.8466 87.1695 20.9053 87.0972 20.9678C87.0249 21.0304 86.9604 21.0929 86.9017 21.1535C87.0014 21.1183 87.1148 21.0949 87.2418 21.0851C87.3669 21.0753 87.4862 21.0773 87.5996 21.0949C87.7129 21.1125 87.8263 21.1418 87.9416 21.1848C88.057 21.2278 88.1723 21.2904 88.2915 21.3725C88.4675 21.4937 88.6043 21.6364 88.702 21.8006C88.7998 21.9648 88.8584 22.1407 88.876 22.3323C88.8936 22.5238 88.8682 22.7232 88.7998 22.9324C88.7314 23.1415 88.6258 23.3468 88.487 23.5481L88.4772 23.5462ZM87.7149 23.0536C88.0824 22.5258 88.0765 22.129 87.6993 21.869C87.5566 21.7712 87.3865 21.7243 87.1851 21.7282C86.9838 21.7341 86.7649 21.7712 86.5244 21.8416L86.5029 21.8709C86.3563 22.082 86.2429 22.2756 86.1628 22.4534C86.0827 22.6294 86.0358 22.7897 86.0221 22.9343C86.0084 23.079 86.0299 23.2021 86.0866 23.3038C86.1433 23.4054 86.2293 23.4973 86.3466 23.5774C86.5557 23.7221 86.7825 23.7494 87.0268 23.6576C87.2712 23.5657 87.4999 23.3644 87.7149 23.0555V23.0536Z" fill="#F0B537"/>
<path d="M91.6341 25.8352C91.595 25.8821 91.5442 25.9407 91.4797 26.0111C91.4152 26.0815 91.3546 26.1479 91.294 26.2085L89.4428 24.6721C89.3392 24.7953 89.2689 24.9204 89.2278 25.0455C89.1868 25.1706 89.175 25.2937 89.1926 25.4149C89.2083 25.5361 89.2513 25.6534 89.3217 25.7668C89.392 25.8801 89.4839 25.9857 89.6031 26.0854C89.74 26.1988 89.8944 26.3102 90.0684 26.4177C90.2423 26.5252 90.4339 26.6269 90.6411 26.7168L90.1954 27.2543C90.1055 27.2152 90.0117 27.1683 89.9139 27.1136C89.8142 27.0589 89.7165 27.0022 89.6168 26.9416C89.5171 26.881 89.4194 26.8165 89.3236 26.7481C89.2278 26.6796 89.1379 26.6093 89.0519 26.5389C88.8369 26.361 88.6707 26.1714 88.5515 25.9681C88.4322 25.7668 88.3638 25.5557 88.3443 25.3387C88.3247 25.1217 88.356 24.8989 88.4401 24.6721C88.5222 24.4454 88.6609 24.2147 88.8525 23.984C89.0421 23.7553 89.2474 23.5735 89.4663 23.4367C89.6852 23.3018 89.9061 23.2139 90.1329 23.1748C90.3577 23.1357 90.5825 23.1474 90.8073 23.2099C91.0321 23.2725 91.2432 23.3878 91.4445 23.5559C91.6439 23.7221 91.7944 23.9 91.8961 24.0876C91.9977 24.2772 92.0544 24.4708 92.0661 24.6662C92.0779 24.8637 92.0466 25.0611 91.9723 25.2585C91.898 25.456 91.7846 25.6475 91.6341 25.8293V25.8352ZM91.0282 25.1686C91.122 25.0591 91.1884 24.9516 91.2275 24.8441C91.2666 24.7366 91.2823 24.6369 91.2764 24.5411C91.2705 24.4454 91.2432 24.3574 91.1982 24.2753C91.1533 24.1932 91.0907 24.1209 91.0125 24.0564C90.8424 23.9156 90.6567 23.857 90.4535 23.8785C90.2502 23.9 90.0527 24.0075 89.8612 24.1991L91.0301 25.1706L91.0282 25.1686Z" fill="#F0B537"/>
<path d="M91.2295 27.2856C91.3331 27.4674 91.4641 27.6609 91.6263 27.8642C91.7886 28.0675 91.9449 28.2434 92.0935 28.392C92.246 28.5425 92.3691 28.6461 92.4629 28.7008C92.5568 28.7575 92.6467 28.7927 92.7288 28.8103C92.8128 28.8259 92.8891 28.8259 92.9595 28.8044C93.0298 28.7849 93.0904 28.7478 93.1432 28.695C93.196 28.6422 93.2292 28.5836 93.2468 28.519C93.2624 28.4545 93.2585 28.3803 93.2331 28.2982C93.2077 28.2161 93.1569 28.1203 93.0806 28.0167C93.0044 27.9111 92.9028 27.7958 92.7718 27.6668L92.0818 26.9865L92.5216 26.5408L93.1745 27.1859C93.3289 27.3403 93.4521 27.442 93.54 27.4948C93.628 27.5475 93.7101 27.5788 93.7824 27.5905C93.8547 27.6023 93.9212 27.5964 93.9779 27.5749C94.0346 27.5534 94.0873 27.5182 94.1323 27.4713C94.1753 27.4263 94.2066 27.3775 94.2222 27.3227C94.2379 27.268 94.2379 27.2074 94.2164 27.139C94.1968 27.0706 94.1519 26.9885 94.0854 26.8946C94.0189 26.8008 93.9192 26.6894 93.7902 26.5623C93.6749 26.447 93.5302 26.3219 93.3563 26.1851C93.1823 26.0482 93.0025 25.9251 92.8128 25.8156L93.2957 25.3269C93.4618 25.4442 93.6358 25.5752 93.8156 25.7198C93.9955 25.8645 94.1655 26.015 94.3239 26.1714C94.7383 26.5819 94.9846 26.9396 95.0628 27.2445C95.141 27.5514 95.0686 27.8153 94.8497 28.0362C94.7911 28.0968 94.7207 28.1457 94.6425 28.1867C94.5643 28.2278 94.4783 28.2532 94.3845 28.2669C94.2906 28.2786 94.1929 28.2747 94.0912 28.2552C93.9876 28.2337 93.884 28.1946 93.7765 28.1359C93.8489 28.2297 93.9056 28.3314 93.9505 28.4389C93.9935 28.5464 94.0189 28.6539 94.0248 28.7634C94.0307 28.8729 94.015 28.9784 93.9779 29.082C93.9407 29.1856 93.8801 29.2814 93.7941 29.3674C93.5224 29.643 93.2018 29.7369 92.8324 29.6489C92.4629 29.5629 92.0446 29.2892 91.5774 28.8279C91.4308 28.6832 91.2842 28.523 91.1376 28.347C90.991 28.1711 90.8503 27.9893 90.7134 27.7958L91.2217 27.2856H91.2295Z" fill="#F0B537"/>
<path d="M94.9494 32.3523L97.1622 30.4679L96.2396 29.385L94.0268 31.2694L93.4658 30.6106L96.2513 28.2376L98.2921 30.6341L95.5066 33.0072L94.9475 32.3523H94.9494Z" fill="#F0B537"/>
<path d="M99.5353 34.9717C99.4864 35.0069 99.4219 35.0499 99.3418 35.1027C99.2616 35.1554 99.1854 35.2043 99.113 35.2454L97.7174 33.2867C97.5864 33.3805 97.4847 33.4822 97.4144 33.5936C97.344 33.705 97.301 33.8203 97.2854 33.9415C97.2697 34.0627 97.2814 34.1878 97.3186 34.3149C97.3557 34.4419 97.4202 34.569 97.5102 34.6941C97.6138 34.8388 97.735 34.9854 97.8757 35.1339C98.0164 35.2825 98.1748 35.4291 98.3527 35.5698L97.7838 35.9745C97.7076 35.9139 97.6294 35.8435 97.5473 35.7673C97.4652 35.691 97.3851 35.6089 97.303 35.5249C97.2209 35.4408 97.1446 35.3529 97.0684 35.2629C96.9941 35.173 96.9237 35.0812 96.8592 34.9912C96.697 34.7645 96.5856 34.5377 96.5211 34.3129C96.4565 34.0862 96.4448 33.8672 96.48 33.6522C96.5171 33.4372 96.6051 33.23 96.7419 33.0306C96.8807 32.8312 97.0723 32.6455 97.3166 32.4716C97.559 32.2995 97.8034 32.1744 98.0497 32.1002C98.296 32.0259 98.5325 31.9985 98.7612 32.0181C98.9899 32.0376 99.203 32.108 99.4043 32.2253C99.6057 32.3425 99.7816 32.5087 99.934 32.7218C100.085 32.9329 100.184 33.142 100.235 33.3512C100.286 33.5604 100.29 33.7617 100.251 33.9552C100.212 34.1487 100.131 34.3305 100.008 34.5025C99.8871 34.6746 99.7288 34.8309 99.5353 34.9678V34.9717ZM99.1189 34.1702C99.2382 34.0881 99.33 34.0002 99.3945 33.9083C99.459 33.8164 99.5001 33.7206 99.5196 33.6268C99.5392 33.533 99.5353 33.4392 99.5118 33.3492C99.4884 33.2574 99.4473 33.1714 99.3887 33.0893C99.2597 32.9094 99.0955 32.8039 98.8922 32.7745C98.6889 32.7452 98.4719 32.798 98.2373 32.9309L99.1189 34.1683V34.1702Z" fill="#F0B537"/>
<path d="M99.3124 38.6896L100.563 37.9527C100.456 37.8686 100.356 37.7729 100.264 37.6673C100.173 37.5617 100.094 37.4484 100.024 37.3311C99.8735 37.075 99.7699 36.8404 99.7151 36.6313C99.6604 36.4202 99.6506 36.2286 99.6877 36.0566C99.7249 35.8846 99.8011 35.7262 99.9223 35.5855C100.044 35.4447 100.202 35.3157 100.397 35.2004L101.216 34.7176L101.654 35.4584L100.929 35.8865C100.812 35.9569 100.716 36.0273 100.642 36.1015C100.567 36.1758 100.519 36.256 100.495 36.3459C100.47 36.4338 100.47 36.5316 100.495 36.6371C100.519 36.7427 100.571 36.8619 100.651 36.9968C100.718 37.1102 100.796 37.2157 100.884 37.3154C100.972 37.4132 101.07 37.507 101.175 37.595L102.465 36.8346L102.903 37.5754L99.7503 39.4344L99.3124 38.6935V38.6896Z" fill="#F0B537"/>
<path d="M103.378 42.0577C103.324 42.0831 103.253 42.1163 103.165 42.1535C103.077 42.1906 102.993 42.2258 102.915 42.2551L101.877 40.0853C101.732 40.1538 101.615 40.2378 101.525 40.3355C101.435 40.4333 101.373 40.5388 101.338 40.6561C101.302 40.7734 101.291 40.8985 101.306 41.0295C101.322 41.1624 101.363 41.2973 101.429 41.4361C101.506 41.5964 101.601 41.7625 101.713 41.9326C101.824 42.1046 101.957 42.2747 102.108 42.4447L101.478 42.7458C101.414 42.6734 101.347 42.5913 101.281 42.5014C101.214 42.4115 101.148 42.3177 101.083 42.2199C101.019 42.1241 100.956 42.0245 100.898 41.9209C100.839 41.8192 100.786 41.7176 100.739 41.6179C100.62 41.3657 100.548 41.1233 100.524 40.8907C100.501 40.6581 100.524 40.4372 100.599 40.2319C100.673 40.0267 100.794 39.8371 100.964 39.6651C101.134 39.493 101.355 39.3425 101.627 39.2135C101.895 39.0845 102.157 39.0044 102.413 38.9731C102.667 38.9418 102.905 38.9555 103.128 39.0141C103.349 39.0728 103.548 39.1783 103.726 39.3288C103.904 39.4794 104.049 39.6729 104.162 39.9094C104.274 40.144 104.336 40.3668 104.35 40.5818C104.364 40.7969 104.334 40.9963 104.262 41.178C104.19 41.3598 104.078 41.5279 103.93 41.6765C103.779 41.8251 103.597 41.9502 103.384 42.0538L103.378 42.0577ZM103.107 41.1976C103.238 41.137 103.343 41.0666 103.423 40.9865C103.503 40.9063 103.56 40.8203 103.595 40.7304C103.63 40.6405 103.642 40.5486 103.636 40.4548C103.629 40.361 103.603 40.2691 103.56 40.1772C103.464 39.9778 103.32 39.8469 103.126 39.7824C102.933 39.7178 102.708 39.7315 102.454 39.8234L103.109 41.1956L103.107 41.1976Z" fill="#F0B537"/>
<path d="M102.518 45.6838L103.961 45.1423L103.462 43.8111L102.02 44.3526L101.717 43.5433L105.143 42.259L105.446 43.0683L104.162 43.5492L104.663 44.8804L105.947 44.3995L106.25 45.2048L102.823 46.4891L102.52 45.6838H102.518Z" fill="#F0B537"/>
<path d="M103.65 49.3626L105.136 48.9501L104.754 47.5798L103.269 47.9923L103.036 47.1596L106.561 46.1783L106.793 47.011L105.472 47.3785L105.853 48.7488L107.174 48.3813L107.405 49.2101L103.881 50.1914L103.65 49.3626Z" fill="#F0B537"/>
<path d="M105.112 50.9479C105.294 50.989 105.433 51.0554 105.529 51.1453C105.624 51.2353 105.693 51.333 105.736 51.4405C105.732 51.3193 105.747 51.204 105.781 51.0965C105.814 50.989 105.863 50.8932 105.929 50.8072C105.996 50.7212 106.078 50.6488 106.176 50.5902C106.273 50.5315 106.383 50.4905 106.508 50.467C106.723 50.426 106.913 50.4318 107.081 50.4788C107.247 50.5276 107.391 50.6175 107.517 50.7505C107.64 50.8834 107.745 51.0593 107.831 51.2763C107.917 51.4933 107.988 51.7513 108.042 52.0484C108.081 52.2556 108.115 52.4628 108.144 52.67C108.173 52.8772 108.197 53.0845 108.216 53.2897L104.62 53.9602L104.461 53.1138L105.783 52.8675L105.72 52.5273C105.701 52.4237 105.675 52.3319 105.644 52.2537C105.613 52.1755 105.572 52.1051 105.525 52.0445C105.476 51.9839 105.417 51.9351 105.343 51.896C105.271 51.8569 105.192 51.8314 105.108 51.8197L104.193 51.6673L104.014 50.6977L105.118 50.942L105.112 50.9479ZM106.692 51.3799C106.59 51.3994 106.51 51.4346 106.451 51.4855C106.393 51.5363 106.35 51.6047 106.324 51.6868C106.299 51.7689 106.287 51.8686 106.291 51.982C106.295 52.0953 106.31 52.2244 106.338 52.369L106.41 52.7541L107.454 52.5586C107.448 52.4882 107.44 52.4179 107.427 52.3456C107.413 52.2732 107.401 52.195 107.386 52.1129C107.323 51.7787 107.237 51.5637 107.126 51.4698C107.014 51.376 106.87 51.3447 106.692 51.378V51.3799Z" fill="#F0B537"/>
<path d="M52.064 87.0072C48.1232 87.0072 45.1813 86.0592 43.2383 84.165C41.2953 82.2709 40.3257 79.2664 40.3257 75.1536V67.8995C40.3257 65.9389 39.8879 64.463 39.0121 63.472C38.1364 62.4829 36.6801 61.9864 34.6413 61.9864H32.841V56.5873H34.6413C35.6695 56.5873 36.5452 56.4779 37.2685 56.2589C37.9917 56.04 38.5821 55.7018 39.0395 55.2444C39.4969 54.787 39.8253 54.2025 40.0247 53.4871C40.2241 52.7736 40.3238 51.9213 40.3238 50.9303V45.9027C40.3238 43.942 40.5466 42.2179 40.9943 40.7323C41.4419 39.2467 42.1417 38.0094 43.0937 37.0183C44.0456 36.0292 45.2595 35.2805 46.7354 34.7762C48.2112 34.2719 49.9861 34.0197 52.0621 34.0197H54.4605V39.3894H52.6602C51.7454 39.3894 50.9224 39.4989 50.1894 39.7178C49.4564 39.9367 48.823 40.2945 48.2894 40.789C47.7557 41.2836 47.3472 41.9365 47.0618 42.7457C46.7764 43.555 46.6337 44.5597 46.6337 45.76V50.7583C46.6337 52.1872 46.5145 53.405 46.276 54.4137C46.0375 55.4223 45.672 56.2648 45.1774 56.9412C44.6829 57.6175 44.0534 58.1414 43.293 58.5128C42.5307 58.8842 41.6374 59.1461 40.6092 59.2986C42.646 59.5273 44.161 60.3229 45.1501 61.6834C46.1392 63.0458 46.6357 65.1355 46.6357 67.9523V75.2064C46.6357 76.4437 46.7784 77.4719 47.0638 78.291C47.3492 79.11 47.7577 79.7668 48.2913 80.2614C48.825 80.7559 49.4583 81.1078 50.1914 81.3189C50.9244 81.528 51.7474 81.6336 52.6622 81.6336H54.4625V87.0033H52.064V87.0072Z" fill="#2570D4"/>
<path d="M69.26 34.0255C73.2203 34.0255 76.172 34.9736 78.1131 36.8677C80.0561 38.7619 81.0257 41.7761 81.0257 45.9085V50.7074C81.0257 52.668 81.4577 54.1399 82.3256 55.1193C83.1915 56.1006 84.6439 56.5893 86.6808 56.5893H88.5085V61.9883H86.6808C85.6526 61.9883 84.7768 62.0978 84.0536 62.3167C83.3303 62.5356 82.7439 62.8738 82.2963 63.3312C81.8486 63.7886 81.5261 64.3731 81.3247 65.0885C81.1254 65.802 81.0257 66.6543 81.0257 67.6453V75.1575C81.0257 77.1181 80.8009 78.8363 80.3552 80.3121C79.9075 81.788 79.2077 83.0214 78.2558 84.0105C77.3038 84.9997 76.086 85.7483 74.6004 86.2526C73.1148 86.757 71.334 87.0091 69.26 87.0091H66.8615V81.6394H68.6892C69.604 81.6394 70.427 81.5339 71.16 81.3247C71.893 81.1156 72.5264 80.7578 73.06 80.2535C73.5937 79.7492 74.0022 79.0924 74.2876 78.2831C74.573 77.4738 74.7157 76.4691 74.7157 75.2689V67.8428C74.7157 66.4138 74.835 65.1921 75.0734 64.1717C75.3119 63.1533 75.6735 62.305 76.1583 61.6306C76.6431 60.9542 77.2667 60.4362 78.029 60.0746C78.7914 59.713 79.6847 59.4569 80.7129 59.3025C78.676 59.0562 77.167 58.2508 76.1857 56.8883C75.2044 55.5278 74.7138 53.4382 74.7138 50.6194V45.8498C74.7138 44.6125 74.5711 43.5784 74.2857 42.7516C74.0003 41.9247 73.5898 41.262 73.0581 40.7675C72.5244 40.2729 71.8911 39.9211 71.1581 39.71C70.425 39.5008 69.6021 39.3952 68.6873 39.3952H66.8596V34.0255H69.258H69.26Z" fill="#2570D4"/>
<path d="M116.549 50.0643H113.283C112.374 50.0643 111.592 49.4369 111.381 48.5533C110.067 43.0644 107.886 37.9155 104.989 33.2554C104.506 32.4794 104.614 31.4766 105.261 30.8315L107.63 28.4623C109.071 27.0217 109.071 24.6858 107.63 23.2451L97.9187 13.5339C96.478 12.0932 94.1421 12.0932 92.7014 13.5339L90.2677 15.9676C89.6266 16.6087 88.6297 16.7201 87.8556 16.2451C83.2287 13.4146 78.1248 11.2859 72.6945 10.0075C71.8071 9.79835 71.1757 9.01449 71.1757 8.10358V4.68862C71.1757 2.65177 69.5239 1 67.487 1H53.7529C51.7161 1 50.0643 2.65177 50.0643 4.68862V8.15049C50.0643 9.05945 49.4369 9.84135 48.5533 10.0544C43.1445 11.3485 38.066 13.487 33.4587 16.3214C32.6846 16.7983 31.6838 16.6889 31.0407 16.0457L28.5308 13.5358C27.0901 12.0952 24.7542 12.0952 23.3135 13.5358L13.6023 23.2471C12.1616 24.6877 12.1616 27.0236 13.6023 28.4643L16.0966 30.9586C16.7416 31.6036 16.8491 32.6045 16.3702 33.3785C13.5104 38.0054 11.3543 43.1132 10.0525 48.5553C9.84135 49.4388 9.0575 50.0663 8.15049 50.0663H4.68862C2.65177 50.0663 1 51.718 1 53.7549V67.489C1 69.5259 2.65177 71.1776 4.68862 71.1776H8.10358C9.01449 71.1776 9.80031 71.809 10.0075 72.6965C11.2859 78.1287 13.4146 83.2306 16.2451 87.8575C16.7182 88.6316 16.6087 89.6285 15.9676 90.2697L13.6023 92.635C12.1616 94.0756 12.1616 96.4115 13.6023 97.8522L23.3135 107.563C24.7542 109.004 27.0901 109.004 28.5308 107.563L30.8315 105.263C31.4766 104.618 32.4813 104.51 33.2554 104.991C37.9155 107.888 43.0644 110.069 48.5533 111.383C49.4369 111.594 50.0643 112.378 50.0643 113.285V116.551C50.0643 118.588 51.7161 120.24 53.7529 120.24H67.487C69.5239 120.24 71.1757 118.588 71.1757 116.551V113.332C71.1757 112.421 71.8071 111.637 72.6945 111.428C78.205 110.132 83.3772 107.958 88.0589 105.065C88.8349 104.586 89.8338 104.694 90.4789 105.339L92.7014 107.561C94.1421 109.002 96.478 109.002 97.9187 107.561L107.63 97.8502C109.071 96.4096 109.071 94.0737 107.63 92.633L105.392 90.3948C104.749 89.7517 104.639 88.7528 105.116 87.9768C107.984 83.3166 110.14 78.1717 111.43 72.6926C111.639 71.8051 112.423 71.1737 113.334 71.1737H116.553C118.59 71.1737 120.242 69.5219 120.242 67.4851V53.751C120.242 51.7141 118.59 50.0624 116.553 50.0624L116.549 50.0643Z" stroke="#F0B537" stroke-width="2" stroke-miterlimit="10"/>
<path d="M24.891 94.5877L28.2043 91.2314L29.2873 92.3007C29.6684 92.6779 29.8893 93.0278 29.948 93.3484C30.0066 93.669 29.903 93.9661 29.6352 94.2378C29.5531 94.3219 29.4612 94.3942 29.3635 94.4548C29.2658 94.5154 29.1622 94.5584 29.0547 94.5838C28.9471 94.6092 28.8377 94.619 28.7262 94.6092C28.6148 94.5995 28.5015 94.5682 28.3881 94.5135C28.4585 94.6092 28.5112 94.7168 28.5484 94.8321C28.5855 94.9474 28.5992 95.0647 28.5933 95.1859C28.5875 95.3071 28.5581 95.4263 28.5054 95.5475C28.4526 95.6687 28.3724 95.7821 28.2669 95.8896C27.9287 96.2317 27.5593 96.3763 27.1605 96.3216C26.7617 96.2669 26.3454 96.0264 25.9114 95.5983L24.8871 94.5877H24.891ZM26.4705 95.1253C26.5721 95.225 26.6738 95.2993 26.7735 95.3481C26.8751 95.397 26.9748 95.4244 27.0706 95.4302C27.1664 95.4361 27.2582 95.4205 27.3462 95.3853C27.4342 95.3501 27.5123 95.2973 27.5808 95.2269C27.7235 95.0803 27.7821 94.9142 27.7547 94.7246C27.7274 94.535 27.6003 94.3297 27.3775 94.1088L26.9846 93.7218L26.0287 94.6894L26.4705 95.1253ZM28.8729 93.6983C28.9354 93.6358 28.9823 93.5674 29.0116 93.495C29.041 93.4227 29.0527 93.3465 29.0429 93.2663C29.0331 93.1862 29.0019 93.1002 28.951 93.0102C28.9002 92.9203 28.824 92.8265 28.7223 92.7249L28.3392 92.3476L27.4615 93.237L27.8447 93.6143C27.9483 93.7159 28.046 93.7882 28.1418 93.8352C28.2376 93.8801 28.3294 93.9036 28.4174 93.9055C28.5054 93.9055 28.5875 93.8879 28.6637 93.8508C28.7399 93.8137 28.8083 93.7628 28.8729 93.6983Z" fill="#F0B537"/>
<path d="M30.5109 99.4258C30.2959 99.3574 30.1004 99.2753 29.9226 99.1814C29.7447 99.0876 29.5766 98.9723 29.4124 98.8374C29.1504 98.6204 28.953 98.3898 28.8142 98.1474C28.6774 97.903 28.6031 97.6489 28.5914 97.3831C28.5796 97.1172 28.6305 96.8416 28.7458 96.5582C28.8611 96.2747 29.0429 95.9835 29.2892 95.6844C29.5433 95.3794 29.8072 95.139 30.0828 94.967C30.3585 94.793 30.636 94.6855 30.9156 94.6405C31.1951 94.5956 31.4746 94.6171 31.7522 94.7031C32.0298 94.7891 32.2976 94.9377 32.5556 95.1507C32.6397 95.2192 32.7159 95.2876 32.7863 95.3521C32.8566 95.4166 32.9231 95.483 32.9837 95.5515C33.0463 95.6199 33.1049 95.6922 33.1635 95.7684C33.2222 95.8447 33.2789 95.9287 33.3356 96.0186L32.7726 96.6969C32.6768 96.4917 32.5712 96.3158 32.454 96.1652C32.3367 96.0147 32.2213 95.8916 32.1041 95.7958C31.932 95.6531 31.7581 95.5612 31.5861 95.5221C31.414 95.483 31.2401 95.487 31.068 95.5339C30.896 95.5808 30.7279 95.6668 30.5618 95.7899C30.3956 95.9131 30.2373 96.0675 30.0828 96.2532C29.9206 96.4487 29.7935 96.6403 29.7036 96.826C29.6137 97.0117 29.5629 97.1915 29.5531 97.3655C29.5433 97.5394 29.5766 97.7056 29.6548 97.8639C29.731 98.0242 29.8561 98.1728 30.0262 98.3155C30.0868 98.3663 30.1591 98.4152 30.2392 98.4621C30.3213 98.509 30.4054 98.554 30.4953 98.595C30.5852 98.6361 30.6751 98.6732 30.769 98.7045C30.8628 98.7358 30.9508 98.7651 31.0348 98.7866L30.5051 99.4258H30.5109Z" fill="#F0B537"/>
<path d="M33.2104 101.578L35.4525 98.3448L34.1604 97.4475L31.9183 100.681L31.1833 100.171L33.8711 96.2943L36.6352 98.2119L33.9454 102.088L33.2104 101.578Z" fill="#F0B537"/>
<path d="M40.0892 103.265L40.312 104.649L39.5575 104.666L39.319 102.911L40.8281 101.967L41.2855 102.544L40.0892 103.267V103.265ZM41.4927 103.912L41.7371 105.267L41.0021 105.292L40.7225 103.556L42.2433 102.657L42.6812 103.226L41.4927 103.912Z" fill="#F0B537"/>
<path d="M44.6516 107.253L45.9847 103.552L44.505 103.019L43.1718 106.719L42.3293 106.416L43.9283 101.979L47.0931 103.118L45.4941 107.556L44.6516 107.253Z" fill="#F0B537"/>
<path d="M48.7487 108.459L49.7554 104.655L48.2346 104.252L47.2279 108.056L46.362 107.827L47.5681 103.267L50.8208 104.127L49.6147 108.687L48.7487 108.459Z" fill="#F0B537"/>
<path d="M53.3893 104.512L53.315 104.942C53.5477 105.012 53.747 105.104 53.9171 105.222C54.0872 105.339 54.2181 105.486 54.3159 105.661C54.4136 105.837 54.4723 106.045 54.4977 106.285C54.5211 106.525 54.5074 106.803 54.4527 107.118C54.3921 107.464 54.3061 107.751 54.1908 107.982C54.0774 108.21 53.9406 108.394 53.7842 108.529C53.6278 108.664 53.4519 108.76 53.2564 108.816C53.0609 108.873 52.8518 108.9 52.6309 108.899L52.5586 109.323L51.7258 109.178L51.8001 108.754C51.5655 108.682 51.3642 108.59 51.1941 108.474C51.0241 108.361 50.8911 108.218 50.7934 108.044C50.6957 107.872 50.637 107.663 50.6136 107.421C50.5901 107.178 50.6077 106.891 50.6664 106.561C50.725 106.219 50.813 105.935 50.9263 105.71C51.0417 105.486 51.1785 105.306 51.3368 105.171C51.4952 105.038 51.6711 104.942 51.8666 104.885C52.0601 104.829 52.2673 104.799 52.4843 104.797L52.5586 104.367L53.3913 104.512H53.3893ZM51.5343 106.635C51.4952 106.858 51.4776 107.045 51.4815 107.196C51.4854 107.346 51.5049 107.474 51.5421 107.579C51.5792 107.683 51.63 107.769 51.6965 107.835C51.761 107.902 51.8392 107.96 51.9272 108.013L52.3553 105.546C52.2536 105.57 52.1598 105.603 52.0757 105.646C51.9917 105.689 51.9154 105.751 51.8451 105.832C51.7766 105.912 51.716 106.017 51.6633 106.146C51.6105 106.275 51.5694 106.439 51.5343 106.639V106.635ZM53.5828 107.036C53.62 106.826 53.6356 106.649 53.6356 106.502C53.6356 106.355 53.6161 106.23 53.5809 106.129C53.5457 106.027 53.4949 105.939 53.4284 105.869C53.362 105.798 53.2818 105.738 53.188 105.685L52.7599 108.152C52.8615 108.13 52.9554 108.097 53.0414 108.052C53.1274 108.007 53.2056 107.943 53.274 107.859C53.3444 107.775 53.403 107.665 53.4558 107.532C53.5066 107.399 53.5496 107.233 53.5848 107.034L53.5828 107.036Z" fill="#F0B537"/>
<path d="M57.1425 109.776L55.9227 107.384L55.7292 109.657L54.83 109.581L55.2288 104.881L56.1279 104.958L55.9461 107.098L57.5334 105.079L58.6007 105.169L56.8141 107.274L58.284 109.876L57.1405 109.778L57.1425 109.776Z" fill="#F0B537"/>
<path d="M65.7063 109.637L65.5303 107.591L63.9333 107.73L64.1092 109.776L63.2237 109.852L62.8171 105.153L63.7026 105.077L63.8649 106.965L65.4619 106.826L65.2997 104.938L66.1852 104.862L66.5918 109.561L65.7063 109.637Z" fill="#F0B537"/>
<path d="M68.9023 105.161L69.5864 109.078L68.6912 109.235L68.007 105.317L66.7345 105.54L66.6074 104.811L70.0497 104.211L70.1768 104.94L68.9042 105.163L68.9023 105.161Z" fill="#F0B537"/>
<path d="M73.494 106.989C73.4608 107.227 73.4197 107.432 73.3728 107.606C73.3259 107.78 73.2653 107.927 73.191 108.05C73.1167 108.173 73.0249 108.275 72.9173 108.355C72.8098 108.435 72.6789 108.496 72.5244 108.537C72.415 108.566 72.2938 108.588 72.1589 108.601C72.024 108.615 71.9106 108.621 71.8168 108.615L71.6585 107.876C71.7152 107.874 71.7836 107.866 71.8637 107.857C71.9439 107.847 72.026 107.831 72.1061 107.808C72.1687 107.792 72.2293 107.767 72.2879 107.737C72.3466 107.708 72.4032 107.657 72.458 107.585C72.5147 107.515 72.5557 107.427 72.587 107.323C72.6163 107.219 72.6437 107.096 72.6671 106.952L72.6925 106.78L70.2686 104.164L71.3047 103.888L72.4306 105.188L72.8782 105.745L72.9427 104.964L73.0835 103.417L74.012 103.171L73.4959 106.987L73.494 106.989Z" fill="#F0B537"/>
<path d="M79.8078 103.885L81.0081 104.61L80.533 105.196L79.0396 104.242L79.2957 102.481L80.0307 102.506L79.8078 103.887V103.885ZM81.2094 103.234L82.3998 103.922L81.9444 104.5L80.4412 103.591L80.7383 101.85L81.4537 101.883L81.2094 103.234Z" fill="#F0B537"/>
<path d="M85.8734 102.942L84.2197 101.891L84.3077 103.842L83.3772 104.375L83.3538 101.601L81.1078 100.241L82.0128 99.7209L83.5727 100.72L83.4711 98.8843L84.3761 98.3643L84.425 100.988L86.8528 102.381L85.8734 102.944V102.942Z" fill="#F0B537"/>
<path d="M89.3685 100.646L87.1225 97.4163L85.8304 98.3155L88.0764 101.545L87.3415 102.057L84.6478 98.1845L87.4099 96.263L90.1035 100.135L89.3685 100.648V100.646Z" fill="#F0B537"/>
<path d="M88.4185 96.394L87.9553 95.8369L90.2462 93.929L90.7095 94.4861L89.91 95.1507L91.9938 97.6567L92.7933 96.9921L93.2624 97.5551L90.9714 99.461L90.5023 98.898L91.3018 98.2334L89.218 95.7293L88.4185 96.394Z" fill="#F0B537"/>
<path d="M93.3348 94.7852L91.984 94.5428L92.2167 93.845L93.9407 94.1851L94.2496 95.9287L93.5615 96.1379L93.3328 94.7833L93.3348 94.7852ZM94.4333 93.6984L93.0611 93.4267L93.3094 92.7093L95.0374 93.1002L95.3931 94.8497L94.6933 95.0765L94.4333 93.7003V93.6984Z" fill="#F0B537"/>
<path d="M60.618 101.963C83.4512 101.963 101.961 83.4531 101.961 60.62C101.961 37.7868 83.4512 19.2769 60.618 19.2769C37.7849 19.2769 19.275 37.7868 19.275 60.62C19.275 83.4531 37.7849 101.963 60.618 101.963Z" stroke="#F0B537" stroke-width="2" stroke-miterlimit="10"/>
</svg>
