<svg width="35" height="41" viewBox="0 0 35 41" fill="none" xmlns="http://www.w3.org/2000/svg">
<path d="M17.2353 19.7497C20.0115 19.7497 22.4155 18.7766 24.3797 16.8566C26.3439 14.937 27.3396 12.5881 27.3396 9.87456C27.3396 7.16193 26.3439 4.81278 24.3794 2.89249C22.4149 0.973129 20.0112 0 17.2353 0C14.4588 0 12.0554 0.973129 10.0912 2.8928C8.127 4.81247 7.13097 7.16162 7.13097 9.87456C7.13097 12.5881 8.127 14.9373 10.0915 16.8569C12.0561 18.7763 14.4597 19.7497 17.2353 19.7497Z" fill="#1DED83"/>
<path d="M34.9152 31.5268C34.8585 30.7279 34.7439 29.8564 34.5753 28.9361C34.405 28.009 34.1858 27.1325 33.9233 26.3314C33.6522 25.5034 33.2835 24.6858 32.8277 23.9022C32.3547 23.0889 31.7991 22.3807 31.1756 21.798C30.5236 21.1883 29.7254 20.6982 28.8023 20.3406C27.8825 19.985 26.8631 19.8048 25.7726 19.8048C25.3444 19.8048 24.9302 19.9765 24.1304 20.4855C23.6381 20.7992 23.0623 21.162 22.4197 21.5634C21.8701 21.9056 21.1257 22.2262 20.2061 22.5165C19.309 22.8002 18.3981 22.9441 17.499 22.9441C16.6 22.9441 15.6894 22.8002 14.7913 22.5165C13.8727 22.2265 13.1283 21.9059 12.5794 21.5637C11.9428 21.1661 11.3667 20.8033 10.867 20.4851C10.0682 19.9762 9.65369 19.8045 9.22545 19.8045C8.13468 19.8045 7.11561 19.985 6.19607 20.3409C5.27365 20.6978 4.4751 21.188 3.82249 21.7983C3.19933 22.3814 2.64339 23.0892 2.17098 23.9022C1.71553 24.6858 1.34682 25.5031 1.07541 26.3317C0.813276 27.1328 0.594034 28.009 0.423761 28.9361C0.255089 29.8552 0.140507 30.7269 0.0838561 31.5277C0.0281654 32.3122 0 33.1264 0 33.9488C0 36.089 0.696134 37.8216 2.06888 39.0994C3.42466 40.3603 5.2186 41 7.40014 41H27.5999C29.7814 41 31.5747 40.3606 32.9308 39.0994C34.3039 37.8225 35 36.0896 35 33.9485C34.9997 33.1224 34.9712 32.3075 34.9152 31.5268Z" fill="#1DED83"/>
</svg>
