<svg width="37" height="41" viewBox="0 0 37 41" fill="none" xmlns="http://www.w3.org/2000/svg">
<path d="M11.3231 41C12.7652 41 13.1728 40.4332 13.1728 39.7089C13.1728 38.9846 13.1728 37.4101 13.1414 35.1743C5.64865 36.7803 4.04977 31.5845 4.04977 31.5845C2.82709 28.53 1.04011 27.6797 1.04011 27.6797C-1.40524 26.0422 1.22821 26.0737 1.22821 26.0737C3.92437 26.2627 5.36649 28.8134 5.36649 28.8134C7.78049 32.9071 11.668 31.7104 13.2041 31.0177C13.3296 29.6636 13.9252 28.3725 14.9284 27.4278C8.94046 26.7665 2.63899 24.4677 2.63899 14.265C2.60764 11.6198 3.61086 9.03763 5.4292 7.11674C5.11569 6.45545 4.20652 3.74731 5.64865 0.0629748C5.64865 0.0629748 7.90589 -0.661295 13.0787 2.80261C17.4992 1.60599 22.1391 1.60599 26.5595 2.80261C31.6697 -0.629805 33.9583 0.0629748 33.9583 0.0629748C35.4004 3.71582 34.4912 6.42396 34.2404 7.11674C36.0587 9.03763 37.0306 11.6198 36.9993 14.265C36.9993 24.4992 30.6978 26.735 24.6785 27.3963C25.619 28.1836 26.4968 29.821 26.4968 32.3088C26.4968 35.8986 26.4655 38.7327 26.4655 39.5829C26.4655 40.2757 26.779 40.8425 28.3151 40.8425L11.3231 41Z" fill="#2570D4"/>
</svg>
