<svg width="121" height="121" viewBox="0 0 121 121" fill="none" xmlns="http://www.w3.org/2000/svg">
<path opacity="0.5" d="M110.685 48.5961C108.03 42.1834 107.061 39.8416 104.404 33.4308L109.503 25.3565L95.6435 11.4973L87.5692 16.5962C81.1583 13.9395 78.8166 12.9696 72.4039 10.3148L70.2998 1H50.7002L48.5961 10.3148C42.1834 12.9696 39.8416 13.9395 33.4308 16.5962L25.3565 11.4973L11.4973 25.3565L16.5962 33.4308C13.9395 39.8416 12.9696 42.1834 10.3148 48.5961L1 50.7002V70.2998L10.3148 72.4039C12.9696 78.8166 13.9395 81.1583 16.5962 87.5692L11.4973 95.6435C19.0693 103.216 17.7844 101.931 25.3565 109.503L33.4308 104.404C39.8416 107.061 42.1834 108.03 48.5961 110.685L50.7002 120H70.2998L72.4039 110.685C78.8166 108.03 81.1583 107.061 87.5692 104.404L95.6435 109.503C103.216 101.931 101.931 103.216 109.503 95.6435L104.404 87.5692C107.061 81.1583 108.03 78.8166 110.685 72.4039L120 70.2998V50.7002L110.685 48.5961ZM101.79 68.7135L95.5044 83.8885L83.8904 95.5044L68.7116 101.792H52.2865L37.1096 95.5044L25.598 83.9947V83.9909L25.4936 83.8885L19.2103 68.7135V52.2865L25.4936 37.1115L37.1096 25.4956L52.2865 19.2084H68.7116L83.8904 25.4956L83.9928 25.5999L95.5044 37.1115V37.1154L101.79 52.2865V68.7135Z" fill="#1DED83"/>
<path d="M101.79 52.2865V68.7135L95.5045 83.8885L83.8905 95.5044L68.7117 101.792H52.2866L37.1097 95.5044L25.5981 83.9947L25.5961 83.9909L25.4937 83.8885L19.2104 68.7135V52.2865L25.4937 37.1115L37.1097 25.4956L52.2866 19.2084H68.7117L83.8905 25.4956L83.9929 25.5999L95.5045 37.1115L95.5065 37.1154L101.79 52.2865Z" stroke="#1DED83" stroke-width="2" stroke-miterlimit="10"/>
<path d="M110.685 48.5961C108.03 42.1834 107.061 39.8416 104.404 33.4308L109.503 25.3565L95.6435 11.4973L87.5692 16.5962C81.1583 13.9395 78.8166 12.9696 72.4039 10.3148L70.2998 1H50.7002L48.5961 10.3148C42.1834 12.9696 39.8416 13.9395 33.4308 16.5962L25.3565 11.4973L11.4973 25.3565L16.5962 33.4308C13.9395 39.8416 12.9696 42.1834 10.3148 48.5961L1 50.7002V70.2998L10.3148 72.4039C12.9696 78.8166 13.9395 81.1583 16.5962 87.5692L11.4973 95.6435C19.0693 103.216 17.7844 101.931 25.3565 109.503L33.4308 104.404C39.8416 107.061 42.1834 108.03 48.5961 110.685L50.7002 120H70.2998L72.4039 110.685C78.8166 108.03 81.1583 107.061 87.5692 104.404L95.6435 109.503C103.216 101.931 101.931 103.216 109.503 95.6435L104.404 87.5692C107.061 81.1583 108.03 78.8166 110.685 72.4039L120 70.2998V50.7002L110.685 48.5961Z" stroke="#1DED83" stroke-width="2" stroke-miterlimit="10"/>
<path d="M79.8094 67.9445H76.3064V76.3512C76.3064 78.0457 75.8678 79.5334 74.9926 80.8183C74.6989 81.2859 74.042 82.0742 73.0218 83.1832C71.9997 84.2923 71.1959 85.0516 70.6144 85.4612C69.1537 86.5703 67.3742 87.1248 65.272 87.1248H52.0485C50.0623 87.1248 48.3408 86.5703 46.882 85.4612C46.2985 85.0535 45.4947 84.2942 44.4746 83.1832C43.4525 82.0742 42.7955 81.2859 42.5038 80.8183C41.6285 79.5354 41.1899 78.0457 41.1899 76.3512V68.47C41.1899 66.7775 41.6285 65.2608 42.5038 63.916C43.0873 63.0408 44.2253 61.8139 45.9198 60.2372C44.2253 58.6606 43.0873 57.4356 42.5038 56.5585C41.6285 55.2156 41.1899 53.668 41.1899 51.9175V44.8246C41.1899 43.0722 41.6285 41.5265 42.5038 40.1836C42.7955 39.718 43.4525 38.9567 44.4746 37.9076C45.4947 36.8565 46.2985 36.0991 46.882 35.6315C48.4586 34.4645 50.1802 33.8791 52.0485 33.8791H60.4552C62.0318 33.8791 63.5486 34.3467 65.0093 35.2799C66.5859 36.273 68.3944 38.1414 70.4386 40.885C71.2558 41.994 71.8973 43.134 72.3649 44.301L67.3742 45.7018C66.8487 44.5348 65.9734 43.2789 64.7465 41.9361C63.5196 40.5932 62.4395 39.66 61.5063 39.1345C61.2126 38.9587 60.776 38.8717 60.1925 38.8717H52.1355C51.6099 38.8717 51.1424 38.9896 50.7347 39.2214C48.9243 40.2725 47.5235 41.7042 46.5304 43.5127C46.3545 43.8624 46.2676 44.359 46.2676 45.0024V51.7455C46.2676 52.3889 46.3545 52.8835 46.5304 53.2352C47.4636 54.9876 48.8644 56.3884 50.7347 57.4395C51.1424 57.6733 51.6099 57.7892 52.1355 57.7892H62.3816V62.606H52.1355C51.6099 62.606 51.1424 62.7239 50.7347 62.9557C48.9243 64.0068 47.5235 65.4385 46.5304 67.247C46.3545 67.5967 46.2676 68.0643 46.2676 68.6478V76.1793C46.2676 76.7628 46.3545 77.2303 46.5304 77.58C47.4636 79.3325 48.8644 80.7333 50.7347 81.7844C51.1424 82.0182 51.6099 82.1341 52.1355 82.1341H65.272C65.8555 82.1341 66.3521 82.0182 66.7617 81.7844C68.6301 80.7333 70.0309 79.3325 70.966 77.58C71.1418 77.2303 71.2288 76.7628 71.2288 76.1793V63.2185H79.8113V67.9484L79.8094 67.9445Z" fill="#1DED83"/>
</svg>
